<?xml version="1.0" encoding="utf-8"?>
<!-- Generator: Adobe Illustrator 27.5.0, SVG Export Plug-In . SVG Version: 6.00 Build 0)  -->
<svg version="1.1" xmlns="http://www.w3.org/2000/svg" xmlns:xlink="http://www.w3.org/1999/xlink" x="0px" y="0px"
	 viewBox="0 0 500 500" style="enable-background:new 0 0 500 500;" xml:space="preserve">
<g id="BACKGROUND">
	<g>
		<rect style="fill:#F8FAFF;" width="500" height="500"/>
	</g>
</g>
<g id="OBJECTS">
	<g>
		<g>
			<g>
				<g>
					<path style="fill:#E6E9F4;" d="M256.306,53.594c0,0-84.991-33.818-125.897,16.947
						c-40.906,50.766,58.633,117.065-44.126,167.711c-72.566,35.765-35.448,132.516,41.375,120.094
						c87.418-14.134,27.993-63.553,220.997-34.143C444.252,338.771,514.894,135.618,256.306,53.594z"/>
				</g>
			</g>
			<g>
				<g>
					<path style="fill:#E6E9F4;" d="M339.072,73.631c3.967-4.858,2.257-12.123-3.306-15.018c-4.38-2.279-9.908-3.531-14.032,1.049
						c-7.98,8.862,3.99,14.845,10.324,16.62C334.743,77.035,337.842,75.138,339.072,73.631z"/>
				</g>
			</g>
			<g>
				<g>
					<path style="fill:#E6E9F4;" d="M74.265,227.93c-3.211-5.387-10.623-6.262-15.244-2.021c-3.638,3.339-6.702,8.107-3.806,13.547
						c5.604,10.527,15.315,1.32,19.146-4.027C75.986,233.161,75.261,229.601,74.265,227.93z"/>
				</g>
			</g>
			<g>
				<g>
					<path style="fill:#E6E9F4;" d="M451.047,272.432c0,0,8-17.488-0.382-24.475c-8.383-6.987-18.389,14.297-14.998,23.825
						C439.058,281.31,448.86,278.691,451.047,272.432z"/>
				</g>
			</g>
		</g>
		<g>
			<ellipse style="fill:#C7CAD8;" cx="251.471" cy="459.089" rx="225.471" ry="9.491"/>
		</g>
	</g>
	<g>
		<g>
			<g>
				<g>
					<path style="fill:#C7CAD8;" d="M370.184,112.594c21.737-24.883,4.666-61.832,4.666-61.832s-30.45,18.583-44.356,41.056
						c-13.906,22.473,1.021,46.813,1.021,46.813S351.687,133.77,370.184,112.594z"/>
				</g>
			</g>
			<g>
				<g>
					<path style="fill:#9A9FB2;" d="M331.6,139.618c-0.131,0.011-0.266-0.003-0.399-0.048c-0.518-0.173-0.798-0.734-0.625-1.253
						c7.575-22.666,37.313-74.598,37.613-75.12c0.272-0.474,0.877-0.638,1.351-0.366c0.474,0.272,0.638,0.877,0.366,1.351
						c-0.298,0.52-29.939,52.282-37.452,74.762C332.325,139.331,331.981,139.585,331.6,139.618z"/>
				</g>
			</g>
			<g>
				<g>
					<path style="fill:#9A9FB2;" d="M355.722,88.917c-0.399,0.034-0.795-0.176-0.978-0.558c-0.236-0.493-0.029-1.084,0.464-1.321
						l15.624-7.495c0.494-0.236,1.084-0.028,1.321,0.464c0.236,0.493,0.029,1.084-0.464,1.321l-15.624,7.495
						C355.954,88.876,355.838,88.907,355.722,88.917z"/>
				</g>
			</g>
			<g>
				<g>
					<path style="fill:#9A9FB2;" d="M352.188,95.551c-0.425,0.037-0.841-0.206-1.006-0.623l-5.438-13.779
						c-0.201-0.509,0.049-1.084,0.557-1.284c0.51-0.199,1.083,0.049,1.284,0.558l5.438,13.78c0.201,0.509-0.049,1.083-0.558,1.284
						C352.374,95.521,352.281,95.543,352.188,95.551z"/>
				</g>
			</g>
			<g>
				<g>
					<path style="fill:#9A9FB2;" d="M348.41,102.787c-0.502,0.043-0.965-0.301-1.058-0.807c-0.099-0.538,0.257-1.054,0.795-1.153
						l20.193-3.708c0.542-0.098,1.053,0.257,1.152,0.795c0.099,0.538-0.257,1.053-0.795,1.152l-20.193,3.708
						C348.473,102.78,348.442,102.784,348.41,102.787z"/>
				</g>
			</g>
			<g>
				<g>
					<path style="fill:#9A9FB2;" d="M345.062,109.365c-0.361,0.031-0.726-0.137-0.929-0.467l-9.933-16.108
						c-0.287-0.465-0.142-1.075,0.323-1.362c0.466-0.289,1.075-0.142,1.362,0.323l9.933,16.109c0.287,0.465,0.142,1.075-0.323,1.362
						C345.359,109.305,345.211,109.352,345.062,109.365z"/>
				</g>
			</g>
			<g>
				<g>
					<path style="fill:#9A9FB2;" d="M339.393,120.996c-0.435,0.038-0.858-0.218-1.015-0.648c-0.187-0.514,0.078-1.082,0.592-1.269
						l19.445-7.071c0.513-0.187,1.082,0.078,1.268,0.592c0.187,0.514-0.078,1.082-0.592,1.269l-19.445,7.07
						C339.563,120.97,339.478,120.989,339.393,120.996z"/>
				</g>
			</g>
			<g>
				<g>
					<path style="fill:#9A9FB2;" d="M336.494,127.341c-0.413,0.036-0.821-0.193-0.994-0.595l-6.712-15.575
						c-0.216-0.502,0.015-1.084,0.517-1.301c0.502-0.217,1.085,0.015,1.301,0.517l6.712,15.575c0.216,0.502-0.015,1.084-0.517,1.301
						C336.701,127.307,336.598,127.332,336.494,127.341z"/>
				</g>
			</g>
		</g>
		<g>
			<g>
				<g>
					<g>
						<g>
							<g>
								<path style="fill:#9A9FB2;" d="M152.317,244.723c-20.507-22.747-40.383-49.634-51.733-67.737
									c-14.829-23.651-21.495-42.992-19.812-57.486c0.112-0.96,0.981-1.649,1.942-1.538c0.961,0.112,1.649,0.981,1.538,1.942
									c-2.942,25.337,22.182,69.723,72.376,124.281L152.317,244.723z"/>
							</g>
						</g>
					</g>
				</g>
			</g>
			<g>
				<g>
					<g>
						<g>
							<path style="fill:#C7CAD8;" d="M89.121,154.8c0,0-11.52,9.035-26.613-11.84C62.509,142.96,84.065,134.132,89.121,154.8z"/>
						</g>
					</g>
				</g>
			</g>
			<g>
				<g>
					<g>
						<g>
							<path style="fill:#C7CAD8;" d="M96.346,165.965c0,0-9.662-10.999,10.34-27.23
								C106.686,138.735,116.701,159.765,96.346,165.965z"/>
						</g>
					</g>
				</g>
			</g>
			<g>
				<g>
					<g>
						<g>
							<path style="fill:#C7CAD8;" d="M82.819,130.669c0,0-12.776-7.149,0.67-29.12C83.49,101.549,99.943,118.038,82.819,130.669z"
								/>
						</g>
					</g>
				</g>
			</g>
			<g>
				<g>
					<g>
						<g>
							<path style="fill:#C7CAD8;" d="M110.187,188.873c0,0-7.785,12.399-29.049-2.14
								C81.139,186.733,98.437,171.134,110.187,188.873z"/>
						</g>
					</g>
				</g>
			</g>
			<g>
				<g>
					<g>
						<g>
							<path style="fill:#C7CAD8;" d="M119.269,199.133c0,0-11.419-9.163,5.476-28.608
								C124.745,170.525,138.245,189.506,119.269,199.133z"/>
						</g>
					</g>
				</g>
			</g>
			<g>
				<g>
					<g>
						<g>
							<path style="fill:#C7CAD8;" d="M130.308,214.415c0,0-7.548,12.544-29.084-1.589
								C101.224,212.826,118.224,196.901,130.308,214.415z"/>
						</g>
					</g>
				</g>
			</g>
			<g>
				<g>
					<g>
						<g>
							<path style="fill:#C7CAD8;" d="M138.838,226.209c0,0,14.107-3.916,6.253-28.449
								C145.091,197.76,125.197,209.878,138.838,226.209z"/>
						</g>
					</g>
				</g>
			</g>
		</g>
		<g>
			<g>
				<g>
					<g>
						<g>
							<g>
								<path style="fill:#9A9FB2;" d="M322.159,411.509c19.32-23.764,37.799-51.629,48.211-70.287
									c13.604-24.377,19.274-44.032,16.854-58.421c-0.161-0.953-1.064-1.597-2.018-1.437c-0.954,0.16-1.597,1.064-1.437,2.018
									c4.23,25.153-18.597,70.763-65.943,127.81L322.159,411.509z"/>
							</g>
						</g>
					</g>
				</g>
			</g>
			<g>
				<g>
					<g>
						<g>
							<path style="fill:#C7CAD8;" d="M380.686,318.481c0,0,11.965,8.436,25.974-13.182
								C406.66,305.299,384.682,297.582,380.686,318.481z"/>
						</g>
					</g>
				</g>
			</g>
			<g>
				<g>
					<g>
						<g>
							<path style="fill:#C7CAD8;" d="M374.04,330c0,0,9.088-11.478-11.715-26.667C362.325,303.332,353.396,324.846,374.04,330z"/>
						</g>
					</g>
				</g>
			</g>
			<g>
				<g>
					<g>
						<g>
							<path style="fill:#C7CAD8;" d="M385.749,294.06c0,0,12.395-7.791-2.155-29.048
								C383.594,265.012,368.004,282.319,385.749,294.06z"/>
						</g>
					</g>
				</g>
			</g>
			<g>
				<g>
					<g>
						<g>
							<path style="fill:#C7CAD8;" d="M361.385,353.584c0,0,8.407,11.986,28.902-3.619
								C390.287,349.965,372.216,335.269,361.385,353.584z"/>
						</g>
					</g>
				</g>
			</g>
			<g>
				<g>
					<g>
						<g>
							<path style="fill:#C7CAD8;" d="M352.839,364.293c0,0,10.936-9.733-6.928-28.292
								C345.911,336.002,333.397,355.647,352.839,364.293z"/>
						</g>
					</g>
				</g>
			</g>
			<g>
				<g>
					<g>
						<g>
							<path style="fill:#C7CAD8;" d="M342.593,380.119c0,0,8.178,12.143,28.965-3.07
								C371.559,377.048,353.769,362.012,342.593,380.119z"/>
						</g>
					</g>
				</g>
			</g>
			<g>
				<g>
					<g>
						<g>
							<path style="fill:#C7CAD8;" d="M334.676,392.332c0,0-14.288-3.191-7.695-28.093
								C326.981,364.24,347.466,375.327,334.676,392.332z"/>
						</g>
					</g>
				</g>
			</g>
		</g>
	</g>
	<g>
		<g>
			<g>
				<g>
					<g>
						<path style="fill:#9A9FB2;" d="M435.011,122.376c-3.591,0-7.079-0.992-9.862-2.799l-8.118,2.02
							c-0.261,0.065-0.535-0.031-0.698-0.245c-0.163-0.214-0.184-0.504-0.052-0.738l3.837-6.853c-0.54-1.295-0.813-2.65-0.813-4.032
							c0-3.407,1.654-6.601,4.657-8.993c2.958-2.356,6.882-3.654,11.049-3.654c4.167,0,8.091,1.298,11.049,3.654
							c3.003,2.392,4.657,5.586,4.657,8.993c0,3.408-1.654,6.602-4.657,8.994C443.102,121.078,439.178,122.376,435.011,122.376z
							 M425.274,118.177c0.134,0,0.266,0.04,0.378,0.116c2.602,1.764,5.926,2.735,9.359,2.735c7.917,0,14.359-5.069,14.359-11.299
							c0-6.23-6.441-11.299-14.359-11.299c-7.917,0-14.359,5.069-14.359,11.299c0,1.301,0.279,2.577,0.83,3.791
							c0.089,0.195,0.079,0.421-0.026,0.608l-3.239,5.785l6.894-1.715C425.165,118.184,425.219,118.177,425.274,118.177z"/>
					</g>
				</g>
			</g>
			<g>
				<g>
					<g>
						<g>
							<g>
								<g>
									<path style="fill:#9A9FB2;" d="M441.906,112.874c-1.563,0-2.834-1.271-2.834-2.834c0-1.563,1.272-2.834,2.834-2.834
										c1.563,0,2.834,1.271,2.834,2.834C444.741,111.603,443.469,112.874,441.906,112.874z M441.906,108.523
										c-0.836,0-1.517,0.681-1.517,1.517c0,0.837,0.681,1.517,1.517,1.517c0.837,0,1.517-0.681,1.517-1.517
										C443.423,109.203,442.743,108.523,441.906,108.523z"/>
								</g>
							</g>
						</g>
					</g>
				</g>
				<g>
					<g>
						<g>
							<g>
								<g>
									<path style="fill:#9A9FB2;" d="M435.019,112.874c-1.563,0-2.834-1.271-2.834-2.834c0-1.563,1.271-2.834,2.834-2.834
										c1.563,0,2.834,1.271,2.834,2.834C437.853,111.603,436.582,112.874,435.019,112.874z M435.019,108.523
										c-0.837,0-1.517,0.681-1.517,1.517c0,0.837,0.68,1.517,1.517,1.517c0.836,0,1.517-0.681,1.517-1.517
										C436.536,109.203,435.855,108.523,435.019,108.523z"/>
								</g>
							</g>
						</g>
					</g>
				</g>
				<g>
					<g>
						<g>
							<g>
								<g>
									<path style="fill:#9A9FB2;" d="M428.132,112.874c-1.563,0-2.834-1.271-2.834-2.834c0-1.563,1.271-2.834,2.834-2.834
										s2.834,1.271,2.834,2.834C430.966,111.603,429.695,112.874,428.132,112.874z M428.132,108.523
										c-0.837,0-1.517,0.681-1.517,1.517c0,0.837,0.681,1.517,1.517,1.517c0.837,0,1.517-0.681,1.517-1.517
										C429.649,109.203,428.968,108.523,428.132,108.523z"/>
								</g>
							</g>
						</g>
					</g>
				</g>
			</g>
		</g>
		<g>
			<g>
				<g>
					<path style="fill:#9A9FB2;" d="M107.195,84.694c-5.987,0-10.858-4.871-10.858-10.858c0-5.987,4.871-10.858,10.858-10.858
						c5.987,0,10.858,4.871,10.858,10.858C118.053,79.823,113.182,84.694,107.195,84.694z M107.195,64.19
						c-5.319,0-9.646,4.327-9.646,9.646s4.327,9.646,9.646,9.646c5.319,0,9.646-4.327,9.646-9.646S112.514,64.19,107.195,64.19z"/>
				</g>
				<g>
					<path style="fill:#9A9FB2;" d="M107.195,74.442c-0.148,0-0.291-0.054-0.402-0.153c-0.13-0.115-0.204-0.28-0.204-0.453v-7.288
						c0-0.335,0.271-0.606,0.606-0.606c0.335,0,0.606,0.271,0.606,0.606v6.605l5.545-0.663c0.333-0.04,0.634,0.197,0.674,0.53
						c0.04,0.332-0.198,0.634-0.53,0.674l-6.223,0.744C107.243,74.441,107.219,74.442,107.195,74.442z"/>
				</g>
			</g>
		</g>
		<g>
			<path style="fill:#9A9FB2;" d="M66.161,208.28h-7.304c-0.335,0-0.606-0.271-0.606-0.606v-5.655h-5.657
				c-0.335,0-0.606-0.271-0.606-0.606v-7.304c0-0.335,0.271-0.606,0.606-0.606h5.657v-5.657c0-0.335,0.271-0.606,0.606-0.606h7.304
				c0.335,0,0.606,0.271,0.606,0.606v5.657h5.657c0.335,0,0.606,0.271,0.606,0.606v7.304c0,0.335-0.271,0.606-0.606,0.606h-5.657
				v5.655C66.766,208.009,66.495,208.28,66.161,208.28z M59.463,207.068h6.092v-5.655c0-0.335,0.271-0.606,0.606-0.606h5.657v-6.092
				h-5.657c-0.335,0-0.606-0.271-0.606-0.606v-5.657h-6.092v5.657c0,0.335-0.271,0.606-0.606,0.606H53.2v6.092h5.657
				c0.335,0,0.606,0.271,0.606,0.606V207.068z"/>
		</g>
		<g>
			<path style="fill:#9A9FB2;" d="M449.219,131.707h-31.526c-0.335,0-0.606-0.271-0.606-0.606c0-0.335,0.271-0.606,0.606-0.606
				h31.526c0.335,0,0.606,0.271,0.606,0.606C449.825,131.436,449.553,131.707,449.219,131.707z"/>
		</g>
		<g>
			<g>
				<path style="fill:#9A9FB2;" d="M299.64,60.917c-2.399,0-4.351-1.952-4.351-4.351s1.952-4.351,4.351-4.351
					c2.399,0,4.351,1.952,4.351,4.351S302.039,60.917,299.64,60.917z M299.64,53.426c-1.731,0-3.139,1.408-3.139,3.139
					c0,1.731,1.408,3.139,3.139,3.139s3.139-1.408,3.139-3.139C302.779,54.835,301.371,53.426,299.64,53.426z"/>
			</g>
			<g>
				<path style="fill:#9A9FB2;" d="M286.776,57.157h-88.968c-0.335,0-0.606-0.271-0.606-0.606c0-0.335,0.271-0.606,0.606-0.606
					h88.968c0.335,0,0.606,0.271,0.606,0.606C287.382,56.886,287.111,57.157,286.776,57.157z"/>
			</g>
		</g>
	</g>
	<g>
		<g>
			<g>
				<g>
					<g>
						<path style="fill:#0C0B0B;" d="M344.813,86.074v352.481c0,5.498-2.218,10.477-5.807,14.095
							c-3.625,3.649-8.646,5.909-14.197,5.909H149.281c-11.049,0-20.004-8.955-20.004-20.004V86.074
							c0-7.783,4.442-14.523,10.93-17.832c2.726-1.39,5.807-2.172,9.074-2.172h175.528C335.859,66.07,344.813,75.025,344.813,86.074
							z"/>
					</g>
				</g>
			</g>
			<g>
				<g>
					<g>
						<path style="fill:#453F3F;" d="M344.814,163.861h5.143c0.466,0,0.844-0.378,0.844-0.844v-36.231
							c0-0.466-0.378-0.844-0.844-0.844h-5.143V163.861z"/>
					</g>
				</g>
				<g>
					<g>
						<path style="fill:#453F3F;" d="M129.278,176.044h-6.286c-0.57,0-1.031-0.462-1.031-1.031V130.51
							c0-0.57,0.462-1.031,1.031-1.031h6.286V176.044z"/>
					</g>
				</g>
				<g>
					<g>
						<path style="fill:#453F3F;" d="M129.278,228.93h-6.286c-0.57,0-1.031-0.462-1.031-1.031v-44.504
							c0-0.57,0.462-1.031,1.031-1.031h6.286V228.93z"/>
					</g>
				</g>
			</g>
			<g>
				<g>
					<g>
						<path style="fill:#C7CAD8;" d="M334.834,84.862v354.899c0,1.222-0.248,2.387-0.703,3.453
							c-1.347,3.154-4.465,5.362-8.108,5.362H148.075c-4.867,0-8.813-3.938-8.813-8.815V84.862c0-3.629,2.203-6.753,5.35-8.11
							c1.062-0.454,2.229-0.703,3.463-0.703h177.947C330.885,76.049,334.834,79.997,334.834,84.862z"/>
					</g>
				</g>
			</g>
			<g>
				<path style="fill:#FFFFFF;" d="M334.834,376.147v63.615c0,1.222-0.248,2.387-0.703,3.453c-1.347,3.154-4.465,5.362-8.108,5.362
					H148.075c-4.867,0-8.813-3.938-8.813-8.815V376.1c0.648-7.262,6.749-12.951,14.178-12.951h167.21
					C328.097,363.15,334.205,368.862,334.834,376.147z"/>
			</g>
			<g>
				<g>
					<path style="fill:#EFAD1A;" d="M223.179,400.765h-58.7c-1.691,0-3.062-1.371-3.062-3.062v-7.461
						c0-1.691,1.371-3.062,3.062-3.062h58.7c1.691,0,3.062,1.371,3.062,3.062v7.461C226.241,399.394,224.87,400.765,223.179,400.765
						z"/>
				</g>
				<g>
					<path style="fill:#777D15;" d="M223.179,430.598h-58.7c-1.691,0-3.062-1.371-3.062-3.062v-7.461
						c0-1.691,1.371-3.062,3.062-3.062h58.7c1.691,0,3.062,1.371,3.062,3.062v7.461C226.241,429.228,224.87,430.598,223.179,430.598
						z"/>
				</g>
				<g>
					<path style="fill:#EF6931;" d="M312.237,400.765h-58.7c-1.691,0-3.062-1.371-3.062-3.062v-7.461
						c0-1.691,1.371-3.062,3.062-3.062h58.7c1.691,0,3.062,1.371,3.062,3.062v7.461
						C315.299,399.394,313.928,400.765,312.237,400.765z"/>
				</g>
				<g>
					<path style="fill:#C7CAD8;" d="M312.237,430.598h-58.7c-1.691,0-3.062-1.371-3.062-3.062v-7.461
						c0-1.691,1.371-3.062,3.062-3.062h58.7c1.691,0,3.062,1.371,3.062,3.062v7.461
						C315.299,429.228,313.928,430.598,312.237,430.598z"/>
				</g>
			</g>
			<g>
				<path style="fill:#C7CAD8;" d="M284.3,373.65h-91.885c-1.171,0-2.12-0.949-2.12-2.12l0,0c0-1.171,0.949-2.12,2.12-2.12H284.3
					c1.171,0,2.12,0.949,2.12,2.12l0,0C286.421,372.701,285.471,373.65,284.3,373.65z"/>
			</g>
			<g>
				<g>
					<path style="fill:#FFFFFF;" d="M139.262,84.861v16.527h195.572V84.861c0-4.864-3.949-8.812-8.812-8.812H148.074
						c-1.233,0-2.401,0.248-3.463,0.703C141.466,78.109,139.262,81.233,139.262,84.861z"/>
				</g>
			</g>
			<g>
				<g>
					<g>
						<g>
							<g>
								<path style="fill:#777D15;" d="M303.301,89.351c0,1.835-1.487,3.322-3.322,3.322c-1.835,0-3.322-1.487-3.322-3.322
									c0-1.835,1.487-3.322,3.322-3.322C301.813,86.029,303.301,87.516,303.301,89.351z"/>
							</g>
						</g>
					</g>
				</g>
				<g>
					<g>
						<g>
							<g>
								<path style="fill:#EF6931;" d="M314.881,89.351c0,1.835-1.487,3.322-3.322,3.322c-1.835,0-3.322-1.487-3.322-3.322
									c0-1.835,1.487-3.322,3.322-3.322C313.394,86.029,314.881,87.516,314.881,89.351z"/>
							</g>
						</g>
					</g>
				</g>
				<g>
					<g>
						<g>
							<g>
								<path style="fill:#0C0B0B;" d="M326.412,89.351c0,1.835-1.487,3.322-3.322,3.322c-1.835,0-3.322-1.487-3.322-3.322
									c0-1.835,1.487-3.322,3.322-3.322C324.924,86.029,326.412,87.516,326.412,89.351z"/>
							</g>
						</g>
					</g>
				</g>
			</g>
			<g>
				<g>
					<path style="fill:#0C0B0B;" d="M286.905,75.791l-4.867,4.868c-4.875,4.875-11.488,7.614-18.382,7.614h-53.198
						c-6.895,0-13.507-2.739-18.382-7.614l-4.829-4.829L286.905,75.791z"/>
				</g>
			</g>
			<g>
				<g>
					<path style="fill:#453F3F;" d="M201.681,82.032h70.73c0.13,0,0.237-0.107,0.237-0.237v-2.886c0-0.13-0.107-0.237-0.237-0.237
						h-70.73c-0.13,0-0.237,0.107-0.237,0.237v2.886C201.444,81.926,201.551,82.032,201.681,82.032z"/>
				</g>
			</g>
		</g>
		<g>
			<g>
				<g>
					<path style="fill:#9A9FB2;" d="M314.755,268.37h-151.48c-3.079,0-5.575-2.496-5.575-5.575v-56.918
						c0-3.079,2.496-5.575,5.575-5.575h151.48c3.079,0,5.575,2.496,5.575,5.575v56.918
						C320.329,265.875,317.833,268.37,314.755,268.37z"/>
				</g>
				<g>
					<path style="fill:#FFFFFF;" d="M310.878,264.606h-151.48c-3.079,0-5.574-2.496-5.574-5.574v-56.918
						c0-3.079,2.496-5.575,5.574-5.575h151.48c3.079,0,5.575,2.496,5.575,5.575v56.918
						C316.453,262.111,313.957,264.606,310.878,264.606z"/>
				</g>
				<g>
					<g>
						<path style="fill:#EF6931;" d="M304.46,217.383h-84.55c-1.398,0-2.532-1.134-2.532-2.532v-0.995
							c0-1.398,1.134-2.532,2.532-2.532h84.55c1.398,0,2.532,1.134,2.532,2.532v0.995
							C306.992,216.249,305.858,217.383,304.46,217.383z"/>
					</g>
					<g>
						<g>
							<path style="fill:#C7CAD8;" d="M254.972,230.261H219.41c-1.123,0-2.033-0.911-2.033-2.034v-0.799
								c0-1.123,0.91-2.034,2.033-2.034h35.562c1.123,0,2.033,0.91,2.033,2.034v0.799
								C257.005,229.35,256.095,230.261,254.972,230.261z"/>
						</g>
						<g>
							<path style="fill:#C7CAD8;" d="M254.972,251.477H219.41c-1.123,0-2.033-0.91-2.033-2.034v-0.799
								c0-1.123,0.91-2.034,2.033-2.034h35.562c1.123,0,2.033,0.91,2.033,2.034v0.799
								C257.005,250.567,256.095,251.477,254.972,251.477z"/>
						</g>
						<g>
							<path style="fill:#C7CAD8;" d="M254.972,240.772H219.41c-1.123,0-2.033-0.91-2.033-2.034v-0.799
								c0-1.123,0.91-2.033,2.033-2.033h35.562c1.123,0,2.033,0.91,2.033,2.033v0.799
								C257.005,239.861,256.095,240.772,254.972,240.772z"/>
						</g>
					</g>
					<g>
						<g>
							<path style="fill:#C7CAD8;" d="M304.958,230.261h-35.561c-1.123,0-2.033-0.911-2.033-2.034v-0.799
								c0-1.123,0.91-2.034,2.033-2.034h35.561c1.123,0,2.034,0.91,2.034,2.034v0.799
								C306.992,229.35,306.081,230.261,304.958,230.261z"/>
						</g>
						<g>
							<path style="fill:#C7CAD8;" d="M304.958,251.477h-35.561c-1.123,0-2.033-0.91-2.033-2.034v-0.799
								c0-1.123,0.91-2.034,2.033-2.034h35.561c1.123,0,2.034,0.91,2.034,2.034v0.799
								C306.992,250.567,306.081,251.477,304.958,251.477z"/>
						</g>
						<g>
							<path style="fill:#C7CAD8;" d="M304.958,240.772h-35.561c-1.123,0-2.033-0.91-2.033-2.034v-0.799
								c0-1.123,0.91-2.033,2.033-2.033h35.561c1.123,0,2.034,0.91,2.034,2.033v0.799
								C306.992,239.861,306.081,240.772,304.958,240.772z"/>
						</g>
					</g>
				</g>
				<g>
					<g>
						<g>
							<path style="fill:#EF6931;" d="M186.036,252.399c-12.035,0-21.826-9.791-21.826-21.826s9.791-21.826,21.826-21.826
								c12.035,0,21.826,9.791,21.826,21.826S198.071,252.399,186.036,252.399z M186.036,211.723c-10.394,0-18.85,8.456-18.85,18.85
								c0,10.394,8.456,18.85,18.85,18.85s18.85-8.456,18.85-18.85C204.886,220.179,196.43,211.723,186.036,211.723z"/>
						</g>
					</g>
					<g>
						<g>
							<path style="fill:#EF6931;" d="M186.036,232.061c-0.362,0-0.714-0.132-0.988-0.375c-0.318-0.283-0.5-0.688-0.5-1.113v-14.458
								c0-0.822,0.666-1.488,1.488-1.488c0.822,0,1.488,0.666,1.488,1.488v12.781l10.679-1.276c0.816-0.098,1.557,0.485,1.654,1.301
								c0.098,0.816-0.485,1.557-1.301,1.654l-12.344,1.475C186.154,232.057,186.095,232.061,186.036,232.061z"/>
						</g>
					</g>
				</g>
			</g>
			<g>
				<g>
					<path style="fill:#9A9FB2;" d="M314.755,184.07h-151.48c-3.079,0-5.575-2.496-5.575-5.574v-56.918
						c0-3.079,2.496-5.575,5.575-5.575h151.48c3.079,0,5.575,2.496,5.575,5.575v56.918
						C320.329,181.574,317.833,184.07,314.755,184.07z"/>
				</g>
				<g>
					<path style="fill:#FFFFFF;" d="M310.878,180.306h-151.48c-3.079,0-5.574-2.496-5.574-5.575v-56.918
						c0-3.079,2.496-5.575,5.574-5.575h151.48c3.079,0,5.575,2.496,5.575,5.575v56.918
						C316.453,177.81,313.957,180.306,310.878,180.306z"/>
				</g>
				<g>
					<path style="fill:#777D15;" d="M199.583,166.977H174.91c-4.173,0-7.555-3.383-7.555-7.555v-24.673
						c0-4.173,3.383-7.555,7.555-7.555h24.673c4.173,0,7.555,3.382,7.555,7.555v24.673
						C207.138,163.594,203.756,166.977,199.583,166.977z"/>
				</g>
				<g>
					<g>
						<path style="fill:#FFFFFF;" d="M180.375,158.101c-0.115,0-0.23-0.01-0.344-0.031c-0.577-0.106-1.073-0.472-1.345-0.992
							l-3.833-7.332c-0.488-0.933-0.127-2.085,0.806-2.572c0.933-0.488,2.084-0.127,2.572,0.806l2.703,5.17l18.06-16.028
							c0.787-0.699,1.992-0.627,2.691,0.16c0.699,0.787,0.627,1.992-0.16,2.691L181.64,157.62
							C181.288,157.933,180.837,158.101,180.375,158.101z"/>
					</g>
				</g>
				<g>
					<g>
						<path style="fill:#777D15;" d="M304.46,133.083h-84.55c-1.398,0-2.532-1.134-2.532-2.532v-0.995
							c0-1.398,1.134-2.532,2.532-2.532h84.55c1.398,0,2.532,1.134,2.532,2.532v0.995
							C306.992,131.949,305.858,133.083,304.46,133.083z"/>
					</g>
					<g>
						<g>
							<path style="fill:#C7CAD8;" d="M254.972,145.96H219.41c-1.123,0-2.033-0.91-2.033-2.033v-0.799
								c0-1.123,0.91-2.034,2.033-2.034h35.562c1.123,0,2.033,0.91,2.033,2.034v0.799C257.005,145.05,256.095,145.96,254.972,145.96
								z"/>
						</g>
						<g>
							<path style="fill:#C7CAD8;" d="M254.972,167.177H219.41c-1.123,0-2.033-0.91-2.033-2.034v-0.799
								c0-1.123,0.91-2.033,2.033-2.033h35.562c1.123,0,2.033,0.91,2.033,2.033v0.799
								C257.005,166.266,256.095,167.177,254.972,167.177z"/>
						</g>
						<g>
							<path style="fill:#C7CAD8;" d="M254.972,156.471H219.41c-1.123,0-2.033-0.91-2.033-2.033v-0.799
								c0-1.123,0.91-2.034,2.033-2.034h35.562c1.123,0,2.033,0.911,2.033,2.034v0.799
								C257.005,155.561,256.095,156.471,254.972,156.471z"/>
						</g>
					</g>
					<g>
						<g>
							<path style="fill:#C7CAD8;" d="M304.958,145.96h-35.561c-1.123,0-2.033-0.91-2.033-2.033v-0.799
								c0-1.123,0.91-2.034,2.033-2.034h35.561c1.123,0,2.034,0.91,2.034,2.034v0.799C306.992,145.05,306.081,145.96,304.958,145.96
								z"/>
						</g>
						<g>
							<path style="fill:#C7CAD8;" d="M304.958,167.177h-35.561c-1.123,0-2.033-0.91-2.033-2.034v-0.799
								c0-1.123,0.91-2.033,2.033-2.033h35.561c1.123,0,2.034,0.91,2.034,2.033v0.799
								C306.992,166.266,306.081,167.177,304.958,167.177z"/>
						</g>
						<g>
							<path style="fill:#C7CAD8;" d="M304.958,156.471h-35.561c-1.123,0-2.033-0.91-2.033-2.033v-0.799
								c0-1.123,0.91-2.034,2.033-2.034h35.561c1.123,0,2.034,0.911,2.034,2.034v0.799
								C306.992,155.561,306.081,156.471,304.958,156.471z"/>
						</g>
					</g>
				</g>
			</g>
			<g>
				<g>
					<path style="fill:#9A9FB2;" d="M314.755,354.652h-151.48c-3.079,0-5.575-2.496-5.575-5.574v-56.918
						c0-3.079,2.496-5.574,5.575-5.574h151.48c3.079,0,5.575,2.496,5.575,5.574v56.918
						C320.329,352.156,317.833,354.652,314.755,354.652z"/>
				</g>
				<g>
					<path style="fill:#FFFFFF;" d="M310.878,350.888h-151.48c-3.079,0-5.574-2.496-5.574-5.575v-56.918
						c0-3.079,2.496-5.575,5.574-5.575h151.48c3.079,0,5.575,2.496,5.575,5.575v56.918
						C316.453,348.392,313.957,350.888,310.878,350.888z"/>
				</g>
				<g>
					<g>
						<path style="fill:#C7CAD8;" d="M198.968,317.528h-30.063c-0.949,0-1.719-0.77-1.719-1.719v-0.676
							c0-0.949,0.77-1.719,1.719-1.719h30.063c0.949,0,1.719,0.77,1.719,1.719v0.676
							C200.687,316.759,199.917,317.528,198.968,317.528z"/>
					</g>
					<g>
						<path style="fill:#C7CAD8;" d="M198.968,335.464h-30.063c-0.949,0-1.719-0.77-1.719-1.719v-0.676
							c0-0.949,0.77-1.719,1.719-1.719h30.063c0.949,0,1.719,0.77,1.719,1.719v0.676
							C200.687,334.694,199.917,335.464,198.968,335.464z"/>
					</g>
					<g>
						<path style="fill:#C7CAD8;" d="M198.968,326.414h-30.063c-0.949,0-1.719-0.77-1.719-1.719v-0.676
							c0-0.949,0.77-1.719,1.719-1.719h30.063c0.949,0,1.719,0.77,1.719,1.719v0.676
							C200.687,325.644,199.917,326.414,198.968,326.414z"/>
					</g>
				</g>
				<g>
					<g>
						<path style="fill:#C7CAD8;" d="M239.644,317.528h-30.063c-0.949,0-1.719-0.77-1.719-1.719v-0.676
							c0-0.949,0.77-1.719,1.719-1.719h30.063c0.949,0,1.719,0.77,1.719,1.719v0.676
							C241.363,316.759,240.593,317.528,239.644,317.528z"/>
					</g>
					<g>
						<path style="fill:#C7CAD8;" d="M239.644,335.464h-30.063c-0.949,0-1.719-0.77-1.719-1.719v-0.676
							c0-0.949,0.77-1.719,1.719-1.719h30.063c0.949,0,1.719,0.77,1.719,1.719v0.676
							C241.363,334.694,240.593,335.464,239.644,335.464z"/>
					</g>
					<g>
						<path style="fill:#C7CAD8;" d="M239.644,326.414h-30.063c-0.949,0-1.719-0.77-1.719-1.719v-0.676
							c0-0.949,0.77-1.719,1.719-1.719h30.063c0.949,0,1.719,0.77,1.719,1.719v0.676
							C241.363,325.644,240.593,326.414,239.644,326.414z"/>
					</g>
				</g>
				<g>
					<g>
						<g>
							<path style="fill:#EFAD1A;" d="M250.599,321.07c-0.031,1.219,0.287,2.365,0.863,3.341c0.278,0.474,0.567,0.941,0.835,1.421
								l4.558,8.222l2.988-5.386c0.793-1.43,1.654-2.821,2.489-4.227c0.561-0.943,0.882-2.043,0.882-3.217
								c0-3.623-3.06-6.538-6.74-6.292C253.25,315.145,250.675,317.84,250.599,321.07z M254.243,320.47
								c0-1.471,1.191-2.662,2.663-2.662c1.469,0,2.662,1.191,2.662,2.662c0,1.471-1.193,2.663-2.662,2.663
								C255.435,323.132,254.243,321.941,254.243,320.47z"/>
						</g>
					</g>
					<g>
						<g>
							<g>
								<path style="fill:#EF6931;" d="M269.187,319.286c0.047-0.197,0.093-0.395,0.142-0.591c0.173-0.694,0.502-1.305,0.97-1.846
									c0.335-0.387,0.723-0.717,1.161-0.968c0.604-0.347,1.288-0.199,1.734,0.339c0.797,0.961,1.59,1.925,2.376,2.895
									c0.483,0.595,0.404,1.41-0.195,1.94c-0.428,0.38-0.88,0.733-1.323,1.096c-0.057,0.047-0.124,0.081-0.173,0.113
									c1.056,2.841,2.847,5.034,5.419,6.615c0.312-0.259,0.638-0.531,0.965-0.802c0.168-0.139,0.333-0.279,0.506-0.411
									c0.517-0.395,1.115-0.435,1.653-0.084c0.17,0.111,0.31,0.276,0.441,0.434c0.72,0.869,1.429,1.746,2.15,2.614
									c0.228,0.275,0.373,0.579,0.424,0.931c-0.013,0.129-0.026,0.258-0.038,0.387c-0.125,0.218-0.212,0.475-0.384,0.646
									c-0.422,0.419-0.885,0.795-1.438,1.044c-0.647,0.292-1.323,0.47-2.031,0.408c-0.467-0.041-0.934-0.139-1.387-0.266
									c-1.163-0.324-2.223-0.88-3.22-1.552c-0.988-0.666-1.888-1.441-2.714-2.298c-1.116-1.157-2.105-2.418-3.002-3.751
									c-0.708-1.051-1.319-2.15-1.715-3.36c-0.199-0.608-0.333-1.231-0.376-1.87c-0.017-0.258-0.023-0.516-0.034-0.774
									C269.128,319.876,269.158,319.581,269.187,319.286z"/>
							</g>
						</g>
					</g>
					<g>
						<g>
							<g>
								<g>
									<path style="fill:#777D15;" d="M288.574,324.486c0,5.276,4.292,9.568,9.568,9.568c5.276,0,9.568-4.293,9.568-9.568
										c0-5.276-4.292-9.568-9.568-9.568C292.866,314.917,288.574,319.21,288.574,324.486z M293.943,328.019
										c-0.313-1.04-0.484-2.168-0.511-3.353h4.325v3.353H293.943z M296.198,333.068c-2.43-0.548-4.497-2.089-5.729-4.28h2.914
										c0.401,1.132,0.96,2.158,1.663,3.049C295.402,332.288,295.788,332.701,296.198,333.068z M297.757,328.788l0,4.487
										c-0.29-0.171-1.207-0.766-2.124-1.938c-0.588-0.751-1.068-1.608-1.428-2.549H297.757z M294.415,319.775
										c1.021-2.261,2.521-3.652,3-4.058c0.114-0.009,0.229-0.017,0.342-0.021v4.079H294.415z M290.715,319.775
										c1.226-1.926,3.158-3.309,5.359-3.842c-0.433,0.458-0.839,0.958-1.211,1.492c-0.513,0.736-0.947,1.527-1.289,2.351H290.715
										z M293.437,323.897c0.045-1.145,0.268-2.272,0.664-3.353h3.656v3.353H293.437z M289.363,323.897
										c0.078-1.175,0.385-2.302,0.914-3.353h3.007c-0.368,1.087-0.576,2.214-0.617,3.353H289.363z M292.662,324.666
										c0.025,1.178,0.186,2.305,0.479,3.353h-3.057c-0.467-1.06-0.715-2.187-0.739-3.353H292.662z M303.532,324.666h3.406
										c-0.023,1.165-0.272,2.292-0.739,3.353h-3.146C303.346,326.971,303.507,325.844,303.532,324.666z M298.527,319.775v-4.079
										c0.082,0.003,0.163,0.008,0.244,0.013c0.332,0.279,1.137,1.013,1.942,2.172c0.414,0.596,0.774,1.233,1.07,1.893H298.527z
										 M302.095,320.544c0.395,1.084,0.618,2.211,0.663,3.353h-4.231v-3.353H302.095z M302.62,319.775
										c-0.343-0.824-0.776-1.615-1.289-2.351c-0.379-0.544-0.794-1.053-1.236-1.518c2.25,0.513,4.223,1.906,5.473,3.869H302.62z
										 M302.763,324.666c-0.026,1.189-0.198,2.316-0.51,3.353h-3.726v-3.353H302.763z M303.528,323.897
										c-0.042-1.139-0.25-2.266-0.617-3.353h3.096c0.529,1.052,0.837,2.179,0.914,3.353H303.528z M305.814,328.788
										c-1.238,2.198-3.395,3.783-5.847,4.304c0.421-0.373,0.817-0.794,1.18-1.255c0.702-0.892,1.262-1.917,1.663-3.049H305.814z
										 M301.989,328.788c-1.062,2.757-2.88,4.069-3.462,4.433v-4.433H301.989z"/>
								</g>
							</g>
						</g>
					</g>
				</g>
				<g>
					<path style="fill:#453F3F;" d="M178.018,298.24c0,4.199-2.691,6.65-6.65,6.65c-1.423,0-2.811-0.343-3.719-0.943l1.457-2.828
						c0.703,0.497,1.423,0.634,2.177,0.634c1.371,0,2.331-0.703,2.605-2.04c-0.6,0.429-1.371,0.668-2.382,0.668
						c-2.194,0-4.113-1.491-4.113-3.839c0-2.571,2.16-4.199,4.867-4.199C175.687,292.344,178.018,294.315,178.018,298.24z
						 M173.768,296.355c0-0.754-0.514-1.217-1.234-1.217c-0.72,0-1.234,0.463-1.234,1.217c0,0.754,0.514,1.234,1.234,1.234
						C173.253,297.589,173.768,297.109,173.768,296.355z"/>
					<path style="fill:#453F3F;" d="M178.857,297.263c0-1.319,0.977-2.194,2.262-2.194c1.285,0,2.262,0.874,2.262,2.194
						c0,1.303-0.977,2.228-2.262,2.228C179.834,299.491,178.857,298.566,178.857,297.263z M178.857,302.559
						c0-1.32,0.977-2.194,2.262-2.194c1.285,0,2.262,0.874,2.262,2.194c0,1.302-0.977,2.228-2.262,2.228
						C179.834,304.787,178.857,303.862,178.857,302.559z"/>
					<path style="fill:#453F3F;" d="M193.836,300.776c0,2.057-1.645,4.113-5.484,4.113c-1.645,0-3.445-0.36-4.73-1.08l1.371-2.982
						c1.028,0.6,2.211,0.874,3.222,0.874c0.908,0,1.56-0.308,1.56-0.926c0-0.514-0.394-0.823-1.422-0.823h-1.594v-2.485l1.765-1.8
						h-4.285v-3.051h8.947v2.485l-2.228,2.262C192.842,297.829,193.836,299.114,193.836,300.776z"/>
					<path style="fill:#453F3F;" d="M194.743,298.617c0-3.976,2.262-6.273,5.433-6.273c3.171,0,5.433,2.297,5.433,6.273
						c0,3.976-2.262,6.273-5.433,6.273C197.005,304.89,194.743,302.593,194.743,298.617z M201.547,298.617
						c0-2.314-0.583-3.034-1.371-3.034c-0.788,0-1.371,0.72-1.371,3.034c0,2.314,0.583,3.034,1.371,3.034
						C200.965,301.651,201.547,300.931,201.547,298.617z"/>
					<path style="fill:#453F3F;" d="M221.375,299.577v5.039h-3.599v-1.234c-0.446,0.943-1.337,1.405-2.657,1.405
						c-2.296,0-3.479-1.303-3.479-2.914c0-1.817,1.371-2.828,4.285-2.828h1.56c-0.12-0.72-0.668-1.097-1.765-1.097
						c-0.84,0-1.782,0.274-2.399,0.737l-1.234-2.554c1.097-0.686,2.759-1.063,4.216-1.063
						C219.524,295.069,221.375,296.458,221.375,299.577z M217.502,301.565v-0.651h-0.96c-0.823,0-1.183,0.274-1.183,0.788
						c0,0.429,0.343,0.754,0.926,0.754C216.816,302.456,217.296,302.182,217.502,301.565z"/>
					<path style="fill:#453F3F;" d="M239.199,299.268v5.347h-3.873v-4.679c0-1.165-0.428-1.611-1.045-1.611
						c-0.686,0-1.217,0.463-1.217,1.714v4.576h-3.873v-4.679c0-1.165-0.394-1.611-1.045-1.611c-0.686,0-1.217,0.463-1.217,1.714
						v4.576h-3.873v-9.375h3.685v0.874c0.703-0.703,1.628-1.046,2.657-1.046c1.217,0,2.279,0.446,2.931,1.423
						c0.754-0.908,1.851-1.423,3.136-1.423C237.588,295.069,239.199,296.32,239.199,299.268z"/>
				</g>
				<g>
					<path style="fill:#EFAD1A;" d="M305.656,302.534h-53.004c-1.135,0-2.054-0.92-2.054-2.055v-0.807
						c0-1.135,0.92-2.055,2.054-2.055h53.004c1.135,0,2.055,0.92,2.055,2.055v0.807C307.71,301.615,306.79,302.534,305.656,302.534z
						"/>
				</g>
			</g>
		</g>
	</g>
	<g>
		<g>
			<g>
				<g>
					<g>
						<g>
							<path style="fill:#0C0B0B;" d="M122.608,422.122h-65.36c-0.269,0-0.487-0.218-0.487-0.487v-4.28
								c0-0.269,0.218-0.487,0.487-0.487h65.36c0.269,0,0.487,0.218,0.487,0.487v4.28
								C123.094,421.904,122.876,422.122,122.608,422.122z"/>
						</g>
					</g>
				</g>
				<g>
					<g>
						<path style="fill:#453F3F;" d="M59.675,358.651h60.636c1.008,0,1.825,0.817,1.825,1.825v7.449
							c0,1.008-0.817,1.825-1.825,1.825H59.675c-1.008,0-1.825-0.817-1.825-1.825v-7.449
							C57.85,359.468,58.667,358.651,59.675,358.651z"/>
					</g>
				</g>
				<g>
					<g>
						<g>
							<g>
								<g>
									<g>
										<path style="fill:#777D15;" d="M73.993,311.425c0,0-25.568-5.054-32.703-22.892
											c-7.135-17.838,18.953-31.216,32.703-21.638C88.704,277.143,73.993,311.425,73.993,311.425z"/>
									</g>
								</g>
							</g>
							<g>
								<g>
									<g>
										<path style="fill:#0C0B0B;" d="M89.196,358.288c-0.226,0-0.423-0.165-0.457-0.395
											c-2.449-16.568-12.322-40.406-20.173-57.486c-8.513-18.522-16.548-33.303-16.628-33.45
											c-0.122-0.224-0.04-0.505,0.185-0.628c0.224-0.122,0.505-0.039,0.628,0.185c0.08,0.148,8.13,14.957,16.656,33.506
											c7.876,17.135,17.782,41.061,20.247,57.737c0.037,0.253-0.137,0.488-0.39,0.525
											C89.242,358.286,89.219,358.288,89.196,358.288z"/>
									</g>
								</g>
							</g>
						</g>
						<g>
							<g>
								<g>
									<path style="fill:#0C0B0B;" d="M73.033,309.699c-0.165,0-0.325-0.088-0.408-0.244
										c-11.121-20.713-29.18-35.741-29.361-35.89c-0.197-0.162-0.225-0.454-0.063-0.651c0.163-0.197,0.454-0.225,0.651-0.063
										c0.182,0.15,18.378,15.288,29.587,36.166c0.121,0.225,0.036,0.506-0.189,0.626
										C73.182,309.681,73.107,309.699,73.033,309.699z"/>
								</g>
							</g>
						</g>
						<g>
							<g>
								<g>
									<path style="fill:#0C0B0B;" d="M73.538,311.182c-0.131,0-0.261-0.055-0.353-0.163c-8.11-9.547-16.416-15.481-21.956-18.779
										c-6.004-3.574-10.144-4.907-10.185-4.92c-0.243-0.077-0.378-0.337-0.301-0.581c0.077-0.244,0.337-0.378,0.581-0.302
										c0.171,0.054,4.259,1.368,10.348,4.989c5.608,3.335,14.015,9.337,22.218,18.993c0.166,0.195,0.142,0.487-0.053,0.652
										C73.751,311.146,73.644,311.182,73.538,311.182z"/>
								</g>
							</g>
						</g>
						<g>
							<g>
								<g>
									<path style="fill:#0C0B0B;" d="M71.288,305.752c-0.193,0-0.372-0.121-0.438-0.314c-6.234-18.296-3.941-40.531-3.917-40.753
										c0.027-0.254,0.254-0.438,0.509-0.41c0.254,0.027,0.438,0.255,0.411,0.509c-0.024,0.22-2.294,22.258,3.872,40.356
										c0.082,0.242-0.047,0.505-0.289,0.587C71.388,305.744,71.338,305.752,71.288,305.752z"/>
								</g>
							</g>
						</g>
						<g>
							<g>
								<g>
									<path style="fill:#0C0B0B;" d="M72.856,309.374c-0.222,0-0.418-0.161-0.456-0.387c-1.908-11.581-0.442-21.029,1.124-26.914
										c1.7-6.392,3.825-9.991,3.915-10.141c0.131-0.219,0.414-0.291,0.634-0.16c0.219,0.131,0.291,0.415,0.16,0.634
										c-0.021,0.036-2.16,3.664-3.825,9.943c-1.536,5.791-2.973,15.087-1.095,26.488c0.042,0.252-0.129,0.49-0.381,0.532
										C72.907,309.372,72.881,309.374,72.856,309.374z"/>
								</g>
							</g>
						</g>
					</g>
					<g>
						<g>
							<g>
								<g>
									<g>
										<path style="fill:#777D15;" d="M100.964,316.085c0,0,25.822-3.532,34.001-20.916
											c8.178-17.384-17.072-32.284-31.365-23.536C88.308,280.992,100.964,316.085,100.964,316.085z"/>
									</g>
								</g>
							</g>
							<g>
								<g>
									<g>
										<path style="fill:#0C0B0B;" d="M91.169,356.772c-0.002,0-0.003,0-0.005,0c-0.256-0.003-0.46-0.213-0.457-0.468
											c0.102-8.533,1.963-18.252,5.531-28.889c2.85-8.496,6.791-17.595,11.713-27.045c8.376-16.083,16.811-27.771,16.895-27.887
											c0.15-0.207,0.439-0.253,0.646-0.103c0.207,0.15,0.253,0.439,0.103,0.646c-0.084,0.116-8.485,11.757-16.83,27.783
											c-7.69,14.768-16.905,36.386-17.132,55.505C91.629,356.569,91.422,356.772,91.169,356.772z"/>
									</g>
								</g>
							</g>
						</g>
						<g>
							<g>
								<g>
									<path style="fill:#0C0B0B;" d="M102.051,314.42c-0.083,0-0.167-0.022-0.242-0.069c-0.218-0.134-0.285-0.419-0.151-0.636
										c12.425-20.179,31.485-34.212,31.676-34.352c0.206-0.151,0.496-0.105,0.646,0.101c0.15,0.206,0.105,0.496-0.101,0.647
										c-0.19,0.138-19.106,14.07-31.434,34.089C102.358,314.342,102.207,314.42,102.051,314.42z"/>
								</g>
							</g>
						</g>
						<g>
							<g>
								<g>
									<path style="fill:#0C0B0B;" d="M101.46,315.87c-0.115,0-0.23-0.043-0.32-0.128c-0.184-0.177-0.191-0.47-0.015-0.654
										c8.761-9.154,17.508-14.648,23.304-17.645c6.293-3.254,10.451-4.324,10.625-4.367c0.246-0.063,0.499,0.087,0.562,0.335
										c0.063,0.248-0.087,0.499-0.335,0.562c-0.042,0.01-4.253,1.096-10.459,4.309c-5.725,2.964-14.368,8.397-23.028,17.446
										C101.703,315.823,101.582,315.87,101.46,315.87z"/>
								</g>
							</g>
						</g>
						<g>
							<g>
								<g>
									<path style="fill:#0C0B0B;" d="M104.027,310.583c-0.058,0-0.117-0.011-0.175-0.034c-0.237-0.097-0.35-0.367-0.253-0.603
										c7.227-17.701,6.265-39.834,6.254-40.056c-0.012-0.255,0.185-0.472,0.44-0.484c0.252-0.014,0.472,0.185,0.484,0.44
										c0.011,0.223,0.984,22.555-6.322,40.45C104.382,310.475,104.209,310.583,104.027,310.583z"/>
								</g>
							</g>
						</g>
						<g>
							<g>
								<g>
									<path style="fill:#0C0B0B;" d="M102.247,314.106c-0.034,0-0.068-0.004-0.103-0.012c-0.249-0.056-0.406-0.304-0.349-0.553
										c2.549-11.27,1.665-20.635,0.475-26.507c-1.291-6.366-3.211-10.115-3.23-10.152c-0.118-0.227-0.029-0.506,0.197-0.624
										c0.227-0.117,0.506-0.029,0.624,0.197c0.08,0.155,1.988,3.874,3.307,10.355c1.214,5.968,2.118,15.486-0.471,26.934
										C102.65,313.96,102.459,314.106,102.247,314.106z"/>
								</g>
							</g>
						</g>
					</g>
					<g>
						<g>
							<g>
								<g>
									<g>
										<path style="fill:#777D15;" d="M91.021,282.446c0,0-21.879-14.162-21.901-33.374c-0.023-19.212,29.165-21.979,38.391-7.99
											C117.381,256.048,91.021,282.446,91.021,282.446z"/>
									</g>
								</g>
							</g>
							<g>
								<g>
									<g>
										<path style="fill:#0C0B0B;" d="M87.963,331.641c-0.035,0-0.071-0.004-0.107-0.013c-0.249-0.059-0.402-0.308-0.343-0.557
											c3.86-16.297,3.516-42.096,2.548-60.87c-1.05-20.357-3.04-37.063-3.06-37.23c-0.03-0.254,0.15-0.484,0.404-0.515
											c0.251-0.029,0.484,0.151,0.515,0.404c0.02,0.167,2.014,16.904,3.065,37.292c0.971,18.833,1.313,44.727-2.572,61.13
											C88.363,331.497,88.173,331.641,87.963,331.641z"/>
									</g>
								</g>
							</g>
						</g>
						<g>
							<g>
								<g>
									<path style="fill:#0C0B0B;" d="M90.94,280.52c-0.232,0-0.432-0.174-0.459-0.41c-2.66-23.359-13.87-44.005-13.983-44.211
										c-0.123-0.224-0.041-0.505,0.183-0.628c0.224-0.123,0.505-0.041,0.628,0.183c0.114,0.207,11.411,21.006,14.092,44.551
										c0.029,0.254-0.154,0.483-0.407,0.512C90.975,280.519,90.957,280.52,90.94,280.52z"/>
								</g>
							</g>
						</g>
						<g>
							<g>
								<g>
									<path style="fill:#0C0B0B;" d="M90.86,282.085c-0.193,0-0.373-0.122-0.438-0.315c-3.999-11.871-9.517-20.46-13.441-25.574
										c-4.254-5.544-7.606-8.314-7.639-8.342c-0.197-0.162-0.227-0.453-0.065-0.651c0.162-0.198,0.453-0.227,0.651-0.065
										c0.139,0.114,3.45,2.848,7.765,8.466c3.975,5.174,9.561,13.863,13.606,25.87c0.082,0.242-0.049,0.505-0.291,0.586
										C90.959,282.077,90.909,282.085,90.86,282.085z"/>
								</g>
							</g>
						</g>
						<g>
							<g>
								<g>
									<path style="fill:#0C0B0B;" d="M90.781,276.208c-0.008,0-0.016,0-0.024,0c-0.255-0.013-0.452-0.23-0.439-0.486
										c0.984-19.303,11.348-39.109,11.453-39.307c0.12-0.226,0.4-0.312,0.625-0.193c0.226,0.119,0.312,0.399,0.193,0.625
										c-0.103,0.196-10.373,19.826-11.346,38.921C91.231,276.016,91.026,276.208,90.781,276.208z"/>
								</g>
							</g>
						</g>
						<g>
							<g>
								<g>
									<path style="fill:#0C0B0B;" d="M90.897,280.153c-0.033,0-0.066-0.003-0.099-0.011c-0.25-0.055-0.408-0.301-0.353-0.551
										c2.516-11.464,7.392-19.761,11.038-24.703c3.96-5.366,7.279-7.98,7.418-8.089c0.201-0.157,0.492-0.121,0.649,0.08
										c0.157,0.202,0.121,0.492-0.08,0.649c-0.033,0.026-3.378,2.664-7.265,7.939c-3.585,4.865-8.379,13.034-10.857,24.321
										C91.302,280.005,91.11,280.153,90.897,280.153z"/>
								</g>
							</g>
						</g>
					</g>
					<g>
						<g>
							<g>
								<path style="fill:#EF6931;" d="M117.752,329.154l-0.763,2.024l-0.482,1.282l-1.383,3.673l-0.484,1.282l-1.421,3.772
									l-0.482,1.28l-6.095,16.184H73.345l-6.095-16.184l-0.482-1.28l-1.421-3.772l-0.484-1.282l-1.383-3.673l-0.482-1.282
									l-0.763-2.024c-0.523-1.388,0.501-2.868,1.984-2.868h51.549C117.249,326.285,118.274,327.766,117.752,329.154z"/>
							</g>
						</g>
					</g>
					<g>
						<g>
							<g>
								<g>
									<polygon style="fill:#BB4000;" points="116.989,331.177 116.507,332.46 63.48,332.46 62.999,331.177 									"/>
								</g>
							</g>
						</g>
						<g>
							<g>
								<g>
									<polygon style="fill:#BB4000;" points="115.124,336.132 114.64,337.415 65.348,337.415 64.864,336.132 									"/>
								</g>
							</g>
						</g>
						<g>
							<g>
								<g>
									<polygon style="fill:#BB4000;" points="113.219,341.187 112.738,342.467 67.25,342.467 66.769,341.187 									"/>
								</g>
							</g>
						</g>
					</g>
				</g>
				<g>
					<g>
						<g>
							<polygon style="fill:#0C0B0B;" points="81.074,369.751 79.227,375.705 53.523,458.559 48.499,458.559 64.801,377.396 
								66.337,369.751 							"/>
						</g>
					</g>
				</g>
				<g>
					<g>
						<polygon style="fill:#0C0B0B;" points="131.638,458.559 126.614,458.559 100.15,373.253 99.063,369.751 113.799,369.751 
							114.171,371.608 114.173,371.608 						"/>
					</g>
				</g>
				<g>
					<g>
						<g>
							<path style="fill:#453F3F;" d="M122.608,410.698h-65.36c-0.269,0-0.487-0.218-0.487-0.487v-4.28
								c0-0.269,0.218-0.487,0.487-0.487h65.36c0.269,0,0.487,0.218,0.487,0.487v4.28
								C123.094,410.48,122.876,410.698,122.608,410.698z"/>
						</g>
					</g>
				</g>
			</g>
		</g>
	</g>
	<g>
		<g>
			<g>
				<g>
					<g>
						<path style="fill:#EF6931;" d="M404.436,139.003c0,0,8.268,6.364,13.379,23.11c5.111,16.745,4.957,42.291,11.598,45.51
							c6.641,3.219,33.759,9.844,33.55,19.653c-0.209,9.809-25.02,6.623-39.086-0.148c-14.066-6.771-15.593-51.479-15.593-51.479
							L404.436,139.003z"/>
					</g>
				</g>
			</g>
			<g>
				<g>
					<g>
						<g>
							<path style="fill:#FFC2A9;" d="M476.098,214.441c0,0-9.7,15.866-20.07,17.828c-1.567,0.296-3.125-0.565-3.753-2.031
								l-2.596-6.064C449.679,224.174,464.638,212.022,476.098,214.441z"/>
						</g>
					</g>
				</g>
				<g>
					<g>
						<g>
							<g>
								<g>
									<path style="fill:#453F3F;" d="M447.871,229.088l0.671,0.719c0.35,0.376,0.901,0.486,1.368,0.272
										c4.338-1.984,25.401-11.637,29.117-13.69c0.345-0.191,0.57-0.541,0.606-0.933l1.194-12.925
										c0.029-0.312-0.066-0.623-0.264-0.866l-0.897-1.097l-1.424,13.89L447.871,229.088z"/>
								</g>
							</g>
						</g>
					</g>
					<g>
						<g>
							<g>
								<g>
									<path style="fill:#0C0B0B;" d="M447.854,228.889l0.8-12.907c0.031-0.505,0.583-1.168,1.233-1.482l28.796-13.894
										c0.65-0.313,1.151-0.158,1.119,0.347l-0.8,12.907c-0.031,0.505-0.583,1.169-1.233,1.482l-28.796,13.894
										C448.324,229.549,447.823,229.394,447.854,228.889z"/>
								</g>
							</g>
						</g>
					</g>
					<g>
						<g>
							<path style="fill:#453F3F;" d="M453.625,224.396l0.582-9.386c0.031-0.505,0.583-1.169,1.233-1.482l21.353-10.303
								c0.65-0.314,1.151-0.158,1.119,0.347l-0.582,9.386c-0.031,0.505-0.583,1.169-1.233,1.482l-21.353,10.303
								C454.095,225.057,453.594,224.902,453.625,224.396z"/>
						</g>
					</g>
					<g>
						<g>
							<g>
								<g>
									<path style="fill:#453F3F;" d="M450.946,222.506c-1.002,0.484-1.775,0.244-1.727-0.536c0.049-0.78,0.9-1.804,1.903-2.287
										c1.002-0.484,1.776-0.244,1.727,0.536C452.8,220.998,451.949,222.022,450.946,222.506z"/>
								</g>
							</g>
						</g>
					</g>
				</g>
				<g>
					<g>
						<g>
							<g>
								<path style="fill:#FFC2A9;" d="M455.01,212.32c0,0-0.591-5.222,3.077-6.569c3.668-1.347,9.988-0.027,9.988-0.027
									c1.805,2.621-2.899,3.541-8.667,4.182L455.01,212.32z"/>
							</g>
						</g>
					</g>
				</g>
				<g>
					<g>
						<g>
							<g>
								<g>
									<g>
										<g>
											<path style="fill:#FFC2A9;" d="M462.06,224.486c0,0,2.672,2.368,4.238,0.925c1.566-1.442,1.092-6.447,0.806-8.192
												c-0.286-1.745-2.281,1.844-2.443,3.687c-0.096,1.087-0.677,2.687-0.677,2.687L462.06,224.486z"/>
										</g>
									</g>
								</g>
							</g>
						</g>
					</g>
					<g>
						<g>
							<g>
								<g>
									<g>
										<g>
											<path style="fill:#FFC2A9;" d="M467.593,221.429c0,0,2.852,2.365,4.711,0.653c1.859-1.712,1.295-7.652,0.956-9.724
												c-0.339-2.071-2.862,2.181-2.899,4.376c-0.037,2.196-1.004,2.878-1.004,2.878L467.593,221.429z"/>
										</g>
									</g>
								</g>
							</g>
						</g>
					</g>
					<g>
						<g>
							<g>
								<g>
									<g>
										<g>
											<path style="fill:#FFC2A9;" d="M470.539,219.978c0,0,2.52,2.089,4.162,0.577c1.642-1.512,1.144-6.759,0.845-8.589
												c-0.3-1.83-2.528,1.926-2.561,3.866c-0.033,1.939-0.887,2.542-0.887,2.542L470.539,219.978z"/>
										</g>
									</g>
								</g>
							</g>
						</g>
					</g>
					<g>
						<g>
							<g>
								<g>
									<g>
										<g>
											<path style="fill:#FFC2A9;" d="M464.343,223.925c0,0,2.852,2.366,4.711,0.653c1.859-1.712,1.296-7.652,0.956-9.723
												c-0.339-2.072-2.862,2.181-2.899,4.376c-0.037,2.195-1.004,2.878-1.004,2.878L464.343,223.925z"/>
										</g>
									</g>
								</g>
							</g>
						</g>
					</g>
				</g>
			</g>
			<g>
				<g>
					<g>
						<g>
							<path style="fill:#BB4000;" d="M420.941,210.801c-0.154-0.001-0.305-0.067-0.41-0.196c-0.185-0.227-0.15-0.561,0.077-0.745
								c2.711-2.202,6.255-3.62,6.405-3.679c0.273-0.108,0.58,0.026,0.688,0.297c0.108,0.272-0.025,0.58-0.297,0.688
								c-0.035,0.014-3.545,1.42-6.127,3.517C421.178,210.763,421.059,210.801,420.941,210.801z"/>
						</g>
					</g>
				</g>
				<g>
					<g>
						<g>
							<path style="fill:#BB4000;" d="M426.216,207.635c-0.055,0-0.111-0.009-0.166-0.027c-2.487-0.83-4.41-0.828-4.406-0.838
								c-0.001,0-0.001,0-0.002,0c-0.292-0.001-0.528-0.238-0.528-0.53c0-0.292,0.236-0.53,0.529-0.53
								c0.09,0.003,2.089,0.007,4.743,0.893c0.278,0.093,0.427,0.393,0.335,0.671C426.646,207.495,426.438,207.636,426.216,207.635z
								"/>
						</g>
					</g>
				</g>
			</g>
		</g>
		<g>
			<g>
				<g>
					<g>
						<g>
							<g>
								<g>
									<g>
										<g>
											<g>
												<polygon style="fill:#FFC2A9;" points="359.52,406.956 353.716,411.798 360.377,422.358 366.181,417.517 												
													"/>
											</g>
										</g>
									</g>
								</g>
							</g>
						</g>
					</g>
				</g>
				<g>
					<g>
						<g>
							<g>
								<g>
									<g>
										<path style="fill:#777D15;" d="M359.663,458.193l-24.254-38.452c0.339-0.614,0.978-1.234,1.816-1.853
											c3.101-2.292,8.946-4.529,12.539-6.086c0.421-0.179,0.811-0.352,1.16-0.514c0.592-0.274,1.075-0.518,1.409-0.729
											c2.671-1.685,3.705,0.968,3.705,0.968c-1.361,6.298,7.14,7.094,6.886,10.851c0,0-0.095,1.609-0.916,6.394
											c-0.822,4.783,0.641,11.12,1.579,16.706c1.214,7.21-0.148,10.331-1.59,11.682
											C360.855,458.231,359.663,458.193,359.663,458.193z"/>
									</g>
								</g>
							</g>
						</g>
					</g>
					<g>
						<g>
							<g>
								<g>
									<g>
										<path style="fill:#424208;" d="M359.663,458.193l-24.254-38.452c0.339-0.614,0.978-1.234,1.816-1.853l24.772,39.274
											C360.855,458.231,359.663,458.193,359.663,458.193z"/>
									</g>
								</g>
							</g>
						</g>
					</g>
					<g>
						<g>
							<g>
								<g>
									<g>
										<g>
											<g>
												<g>
													<g>
														<g>
															<g>
																<path style="fill:#FFFFFF;" d="M361.654,423.983c0,0,2.111-0.372,2.54,1.491c0.428,1.863-2.185,3.298-2.185,3.298
																	S359.142,429.3,361.654,423.983z"/>
															</g>
														</g>
													</g>
												</g>
											</g>
										</g>
									</g>
								</g>
							</g>
						</g>
						<g>
							<g>
								<g>
									<g>
										<g>
											<g>
												<g>
													<g>
														<g>
															<path style="fill:#FFFFFF;" d="M353.797,428.28c-0.221-0.35-0.116-0.812,0.234-1.033
																c3.819-2.409,7.393-1.324,7.543-1.277c0.395,0.124,0.614,0.545,0.49,0.94c-0.124,0.394-0.543,0.613-0.937,0.49
																c-0.129-0.04-3.088-0.909-6.296,1.115C354.48,428.735,354.018,428.631,353.797,428.28z"/>
														</g>
													</g>
												</g>
											</g>
										</g>
									</g>
								</g>
							</g>
						</g>
						<g>
							<g>
								<g>
									<g>
										<g>
											<g>
												<g>
													<g>
														<g>
															<path style="fill:#FFFFFF;" d="M363.817,433.131c-0.094-0.15-0.136-0.333-0.105-0.521
																c0.206-1.255-1.15-3.702-2.054-4.949c-0.241-0.336-0.168-0.803,0.167-1.046c0.335-0.243,0.803-0.168,1.046,0.167
																c0.277,0.382,2.693,3.797,2.319,6.071c-0.067,0.408-0.452,0.685-0.861,0.618
																C364.109,433.435,363.927,433.306,363.817,433.131z"/>
														</g>
													</g>
												</g>
											</g>
										</g>
									</g>
								</g>
							</g>
						</g>
						<g>
							<g>
								<g>
									<g>
										<g>
											<g>
												<g>
													<g>
														<g>
															<g>
																<path style="fill:#FFFFFF;" d="M359.8,425.948c-0.449-0.713-1.034-1.754-1.698-3.214
																	c-0.995-2.186-1.024-4.286-0.077-5.482c0.567-0.714,1.421-1.018,2.345-0.834c0.881,0.176,1.588,0.664,2.101,1.452
																	c0.011,0.017,0.022,0.034,0.033,0.051c1.675,2.655,0.594,7.832,0.465,8.417l-1.071-0.237
																	c0.018,0.021,0.028,0.032,0.029,0.033l-1.174,1.121C360.726,427.228,360.372,426.854,359.8,425.948z
																	 M361.132,418.789c-0.007-0.011-0.014-0.022-0.021-0.033c-0.273-0.419-0.61-0.656-1.059-0.746
																	c-0.327-0.065-0.567,0.014-0.754,0.25c-0.458,0.578-0.548,1.977,0.282,3.801c0.811,1.782,1.48,2.877,1.893,3.477
																	C361.782,423.861,362.146,420.398,361.132,418.789z"/>
															</g>
														</g>
													</g>
												</g>
											</g>
										</g>
									</g>
								</g>
							</g>
						</g>
						<g>
							<g>
								<g>
									<g>
										<g>
											<g>
												<g>
													<g>
														<g>
															<g>
																<path style="fill:#FFFFFF;" d="M362.018,427.923l0.871-1.37c1.395,0.887,3.734,1.101,4.635,0.424
																	c0.219-0.164,0.443-0.443,0.238-1.147c-0.143-0.49-0.374-0.629-0.559-0.697c-0.931-0.339-2.796,0.547-3.753,1.185
																	l-0.902-1.35c0.323-0.216,3.209-2.088,5.209-1.361c0.535,0.194,1.24,0.658,1.564,1.768
																	c0.476,1.629-0.31,2.516-0.821,2.9C366.899,429.478,363.799,429.055,362.018,427.923z"/>
															</g>
														</g>
													</g>
												</g>
											</g>
										</g>
									</g>
								</g>
							</g>
						</g>
					</g>
					<g>
						<g>
							<g>
								<g>
									<g>
										<g>
											<g>
												<g>
													<g>
														<g>
															<path style="fill:#424208;" d="M337.884,423.664l-0.721-1.142c2.021,0.318,4.692,0.125,7.461-1.817
																c3.682-2.582,4.806-6.477,5.141-8.903c0.421-0.179,0.811-0.352,1.16-0.514c-0.228,2.53-1.27,7.209-5.678,10.303
																C342.602,423.445,340.003,423.833,337.884,423.664z"/>
														</g>
													</g>
												</g>
											</g>
										</g>
									</g>
								</g>
							</g>
						</g>
					</g>
					<g>
						<g>
							<g>
								<g>
									<g>
										<g>
											<g>
												<g>
													<g>
														<path style="fill:#FFFFFF;" d="M359.328,429.552c-0.18-0.284-0.15-0.665,0.094-0.918
															c0.286-0.299,0.761-0.309,1.059-0.022l2.111,2.026c0.299,0.286,0.308,0.761,0.022,1.059
															c-0.286,0.299-0.76,0.308-1.059,0.022l-2.111-2.026C359.399,429.65,359.36,429.603,359.328,429.552z"/>
													</g>
												</g>
											</g>
										</g>
									</g>
								</g>
							</g>
						</g>
					</g>
					<g>
						<g>
							<g>
								<g>
									<g>
										<g>
											<g>
												<g>
													<g>
														<path style="fill:#FFFFFF;" d="M359.447,432.835c-0.179-0.284-0.149-0.665,0.094-0.918
															c0.286-0.298,0.761-0.309,1.059-0.022l2.111,2.026c0.299,0.286,0.309,0.761,0.022,1.059
															c-0.286,0.299-0.761,0.308-1.059,0.022l-2.111-2.026C359.518,432.933,359.479,432.885,359.447,432.835z"/>
													</g>
												</g>
											</g>
										</g>
									</g>
								</g>
							</g>
						</g>
					</g>
					<g>
						<g>
							<g>
								<g>
									<g>
										<g>
											<g>
												<g>
													<g>
														<path style="fill:#FFFFFF;" d="M359.62,436.083c-0.179-0.284-0.15-0.664,0.094-0.918
															c0.286-0.298,0.761-0.308,1.059-0.022l2.111,2.026c0.299,0.286,0.308,0.761,0.022,1.059
															c-0.286,0.298-0.761,0.308-1.059,0.022l-2.111-2.026C359.691,436.181,359.652,436.134,359.62,436.083z"/>
													</g>
												</g>
											</g>
										</g>
									</g>
								</g>
							</g>
						</g>
					</g>
					<g>
						<g>
							<g>
								<g>
									<g>
										<g>
											<g>
												<g>
													<g>
														<path style="fill:#FFFFFF;" d="M360.03,439.485c-0.179-0.284-0.149-0.664,0.094-0.918
															c0.286-0.298,0.761-0.308,1.059-0.022l2.111,2.026c0.298,0.286,0.309,0.761,0.022,1.059
															c-0.286,0.298-0.761,0.308-1.059,0.022l-2.112-2.026C360.101,439.583,360.063,439.536,360.03,439.485z"/>
													</g>
												</g>
											</g>
										</g>
									</g>
								</g>
							</g>
						</g>
					</g>
					<g>
						<g>
							<g>
								<g>
									<g>
										<g>
											<g>
												<g>
													<g>
														<path style="fill:#FFFFFF;" d="M360.764,442.993c-0.179-0.284-0.15-0.665,0.094-0.918
															c0.286-0.299,0.761-0.308,1.059-0.022l2.111,2.026c0.299,0.286,0.309,0.761,0.022,1.059
															c-0.286,0.299-0.761,0.309-1.059,0.022l-2.111-2.026C360.834,443.091,360.796,443.044,360.764,442.993z"/>
													</g>
												</g>
											</g>
										</g>
									</g>
								</g>
							</g>
						</g>
					</g>
				</g>
				<g>
					<g>
						<path style="fill:#0C0B0B;" d="M429.815,338.926c-0.009,0.087-0.022,0.171-0.033,0.257c0,0-0.226,0.422-0.655,1.211
							c-3.027,5.542-16.188,29.186-32.505,51.453c-2.353,3.211-4.772,6.391-7.233,9.482c-1.083,1.361-2.174,2.702-3.271,4.021
							c-4.768,5.736-8.765,9.252-13.319,12.208c-0.483,0.313-0.97,0.618-1.467,0.923c-0.946,0.575-1.92,1.135-2.934,1.695
							c-0.48,0.262-0.972,0.525-1.471,0.793c0,0-7.284-7.721-10.659-15.192c0,0,0.958-1.547,2.498-4.065
							c0.302-0.493,0.626-1.021,0.971-1.585c1.039-1.702,2.255-3.703,3.574-5.886c5.932-9.82,13.922-23.302,16.908-29.565
							c2.185-4.576,4.782-9.653,7.686-14.654c0.552-0.952,1.112-1.898,1.688-2.84c0.065-0.112,0.128-0.218,0.198-0.327
							c3.945-6.461,8.358-12.594,12.975-17.111l-10.226-61.77l-0.644-3.878l23.161-8.076l1.321-0.459l5.516-1.923
							c0,0,0.433,2.029,1.104,5.519c0.081,0.421,0.165,0.864,0.252,1.327C426.256,276.337,432.966,315.957,429.815,338.926z"/>
					</g>
				</g>
				<g>
					<g>
						<g>
							<g>
								<g>
									<g>
										<g>
											<path style="fill:#453F3F;" d="M372.799,417.558c-0.483,0.313-0.97,0.618-1.467,0.923l-8.912-11.892l-0.823-1.098
												l-2.832-3.779c0.302-0.493,0.626-1.021,0.971-1.585l2.774,3.703l0.821,1.096L372.799,417.558z"/>
										</g>
									</g>
								</g>
							</g>
						</g>
					</g>
				</g>
				<g>
					<g>
						<g>
							<g>
								<g>
									<g>
										<g>
											<g>
												<path style="fill:#453F3F;" d="M429.816,338.925c-0.009,0.086-0.023,0.171-0.034,0.257c0,0-0.226,0.423-0.655,1.211
													c-5.243-1.001-9.263-3.614-9.501-3.77c-0.356-0.236-0.457-0.718-0.22-1.077c0.236-0.359,0.718-0.457,1.077-0.22
													C420.537,335.365,424.638,338.025,429.816,338.925z"/>
											</g>
										</g>
									</g>
								</g>
							</g>
						</g>
					</g>
				</g>
				<g>
					<g>
						<path style="fill:#453F3F;" d="M408.802,331.924c-0.115,0.11-11.755,11.603-45.471,73.001c-0.3,0.549-0.604,1.105-0.911,1.664
							l-0.823-1.098c0.307-0.558,0.611-1.112,0.913-1.661c31.282-56.927,43.249-70.539,45.165-72.54
							c-2.689-10.1-10.85-61.806-11.2-64.029c-0.053-0.341,0.18-0.66,0.521-0.715c0.339-0.055,0.66,0.18,0.713,0.521
							c0.086,0.549,8.701,55.128,11.264,64.237C409.037,331.525,408.971,331.765,408.802,331.924z"/>
					</g>
				</g>
			</g>
			<g>
				<g>
					<g>
						<g>
							<g>
								<g>
									<g>
										<g>
											<g>
												<path style="fill:#0C0B0B;" d="M353.89,238.243c0,0-1.803,16.508,1.919,25.716c3.722,9.209,52.377,4.66,64.803-3.568
													c5.097-3.375-5.613-34.734-5.613-34.734L353.89,238.243z"/>
											</g>
										</g>
									</g>
								</g>
							</g>
						</g>
					</g>
				</g>
				<g>
					<g>
						<g>
							<g>
								<g>
									<g>
										<g>
											<g>
												<g>
													<path style="fill:#453F3F;" d="M423.249,260.485c-0.736-0.133-1.452-0.32-2.15-0.563
														c-1.115-0.381-2.179-0.902-3.193-1.56c-1.051-0.683-2-1.476-2.848-2.341c-5.341-5.429-6.889-13.611-6.962-14.011
														c-0.061-0.34,0.165-0.664,0.502-0.727c0.34-0.059,0.666,0.165,0.727,0.502c0.017,0.098,1.628,8.607,7.053,13.774
														c0.677,0.647,1.414,1.242,2.213,1.759c0.964,0.625,1.981,1.114,3.049,1.467c0.444,0.147,0.896,0.271,1.357,0.37
														C423.078,259.578,423.163,260.02,423.249,260.485z"/>
												</g>
											</g>
										</g>
									</g>
								</g>
							</g>
						</g>
					</g>
				</g>
				<g>
					<g>
						<g>
							<g>
								<g>
									<g>
										<g>
											<g>
												<g>
													<path style="fill:#453F3F;" d="M393.223,264.99c0.015,0.33-0.25,0.612-0.592,0.63c-0.002,0-0.002,0-0.005,0
														c-0.344,0.016-0.635-0.242-0.65-0.574c-0.101-2.258-0.226-4.571-0.362-6.881c-0.024-0.407-0.048-0.813-0.074-1.22
														c-0.462-7.549-1.058-14.961-1.509-20.194c-0.037-0.423-0.071-0.834-0.107-1.228c-0.1-1.148-0.192-2.167-0.27-3.029
														c0.414-0.063,0.828-0.128,1.238-0.195c0.078,0.862,0.17,1.89,0.271,3.051c0.036,0.394,0.07,0.805,0.107,1.228
														c0.446,5.187,1.038,12.534,1.5,20.037c0.027,0.414,0.051,0.83,0.078,1.244
														C392.988,260.253,393.117,262.652,393.223,264.99z"/>
												</g>
											</g>
										</g>
									</g>
								</g>
							</g>
						</g>
					</g>
				</g>
				<g>
					<g>
						<g>
							<g>
								<g>
									<g>
										<g>
											<g>
												<g>
													<path style="fill:#453F3F;" d="M395.032,257.032c-0.195,0.092-1.072,0.496-2.185,0.827
														c-0.389,0.117-0.806,0.223-1.234,0.306c-0.391,0.074-0.789,0.128-1.182,0.149c-0.756,0.04-1.485-0.043-2.093-0.336
														c-0.757-0.366-1.247-1.028-1.414-1.912c-0.445-2.33-1.362-11.947-1.978-18.75c-0.04-0.418-0.076-0.826-0.112-1.223
														c-0.098-1.088-0.185-2.078-0.259-2.919c0.413-0.048,0.828-0.097,1.242-0.15c0.074,0.846,0.162,1.848,0.263,2.95
														c0.036,0.394,0.072,0.802,0.109,1.223c0.617,6.785,1.531,16.389,1.962,18.647c0.098,0.521,0.335,0.856,0.748,1.056
														c0.66,0.318,1.652,0.256,2.638,0.045c0.42-0.09,0.839-0.206,1.23-0.33c0.716-0.228,1.34-0.488,1.716-0.665
														c0.31-0.147,0.684-0.024,0.835,0.275C395.47,256.524,395.342,256.885,395.032,257.032z"/>
												</g>
											</g>
										</g>
									</g>
								</g>
							</g>
						</g>
					</g>
				</g>
			</g>
			<g>
				<g>
					<g>
						<g>
							<g>
								<g>
									<g>
										<g>
											<g>
												<polygon style="fill:#FFC2A9;" points="373.523,428.979 374.718,438.773 387.205,438.821 387.969,428.52 												
													"/>
											</g>
										</g>
									</g>
								</g>
							</g>
						</g>
					</g>
				</g>
				<g>
					<g>
						<g>
							<g>
								<g>
									<path style="fill:#0C0B0B;" d="M389.926,259.377l-0.635,168.044l-0.192,2.662l-18.537-0.07
										c-0.194-1.214-0.632-3.174-1.211-5.699c-0.125-0.551-0.259-1.128-0.397-1.729c-2.378-10.285-6.448-27.823-7.121-43.057
										c-0.961-21.756-0.561-49.941-0.561-49.941c-2.055-16.174-5.244-51.203-6.828-69.133c-0.04-0.428-0.075-0.84-0.11-1.248
										c-0.532-6.022-0.859-9.815-0.859-9.815c2.989-1.233,8.399-0.357,14.151,1.299c0.417,0.118,0.833,0.239,1.251,0.367
										C379.099,254.163,389.926,259.377,389.926,259.377z"/>
								</g>
							</g>
						</g>
					</g>
				</g>
				<g>
					<g>
						<g>
							<g>
								<g>
									<g>
										<g>
											<path style="fill:#453F3F;" d="M389.309,422.662l-0.007,1.727l-19.951-0.075c-0.125-0.551-0.259-1.128-0.397-1.729
												L389.309,422.662z"/>
										</g>
									</g>
								</g>
							</g>
						</g>
					</g>
				</g>
				<g>
					<g>
						<g>
							<g>
								<g>
									<g>
										<g>
											<g>
												<path style="fill:#453F3F;" d="M389.645,333.471l-0.006,1.604c-2.174,0.54-4.655,0.71-6.98,0.701
													c-4.293-0.016-8.047-0.643-8.309-0.686c-0.421-0.073-0.706-0.473-0.633-0.897c0.07-0.423,0.471-0.71,0.894-0.636
													C374.709,333.574,383.778,335.086,389.645,333.471z"/>
											</g>
										</g>
									</g>
								</g>
							</g>
						</g>
					</g>
				</g>
				<g>
					<g>
						<g>
							<g>
								<g>
									<g>
										<g>
											<g>
												<path style="fill:#453F3F;" d="M372.456,424.326l-1.27-0.005c-0.099-0.536-0.205-1.113-0.319-1.729
													c-1.606-8.71-4.542-24.993-6.058-35.562c-2.119-14.754-0.945-55.637-0.898-57.234
													c-1.597-14.067-4.77-62.248-4.803-62.734c-0.022-0.346,0.238-0.643,0.583-0.665c0.346-0.02,0.64,0.238,0.663,0.583
													c0.033,0.486,3.21,48.738,4.803,62.719c0.002,0.03,0.004,0.061,0.004,0.091c-0.014,0.419-1.25,42.196,0.884,57.064
													c1.527,10.645,4.499,27.1,6.094,35.743C372.251,423.215,372.359,423.794,372.456,424.326z"/>
											</g>
										</g>
									</g>
								</g>
								<g>
									<g>
										<g>
											<g>
												<path style="fill:#EFAD1A;" d="M368.911,297.202c0.974,0.004,1.982-0.156,3.023-0.479
													c13.315-4.136,7.12-37.737,6.85-39.166c-0.085-0.448-0.516-0.743-0.966-0.658c-0.448,0.085-0.743,0.517-0.658,0.965
													c0.016,0.085,1.609,8.612,1.631,17.494c0.02,7.979-1.239,17.889-7.347,19.787c-2.52,0.783-4.71,0.439-6.693-1.053
													c-6.079-4.571-9.003-19.837-8.75-32.555c0.009-0.457-0.353-0.834-0.81-0.843c-0.005,0-0.009,0-0.014,0
													c-0.45-0.002-0.82,0.358-0.829,0.81c-0.127,6.387,0.554,13.346,1.87,19.092c1.154,5.041,3.399,11.704,7.539,14.817
													C365.334,296.597,367.059,297.195,368.911,297.202z"/>
											</g>
										</g>
									</g>
								</g>
							</g>
						</g>
					</g>
				</g>
				<g>
					<g>
						<g>
							<g>
								<g>
									<g>
										<g>
											<path style="fill:#777D15;" d="M391.893,455.527c-0.001,0.112-0.004,0.222-0.007,0.329
												c-0.013,0.5-0.036,0.949-0.059,1.334c-0.054,0.847-0.118,1.369-0.118,1.369l-28.131-0.106c0,0-0.135-1.089-0.022-2.703
												c0.195-2.874,1.167-7.41,5.063-10.396c5.334-4.092,3.277-3.242,4.375-5.112c0.124-0.208,1.093-3.389,1.195-3.608
												c0.922-1.943,1.768-2.86,6.808-2.841c6.684,0.025,7.26,3.271,7.968,4.982c0.291,0.709,0.689,2.2,1.097,3.975
												c0.166,0.712,0.331,1.472,0.494,2.246c0.405,1.94,0.782,3.965,1.038,5.581
												C391.868,452.308,391.92,454.089,391.893,455.527z"/>
										</g>
									</g>
								</g>
							</g>
						</g>
						<g>
							<g>
								<g>
									<g>
										<g>
											<g>
												<g>
													<g>
														<g>
															<g>
																<path style="fill:#424208;" d="M391.893,455.527c-0.001,0.112-0.004,0.222-0.007,0.329
																	c-0.013,0.5-0.036,0.949-0.059,1.334c-1.368-0.968-2.342-2.241-2.908-3.8c-1.723-4.747,0.975-10.427,1.089-10.667
																	l0.056,0.027c0.166,0.712,0.331,1.472,0.494,2.246c-0.641,1.933-1.383,5.185-0.38,7.942
																	C390.543,453.942,391.118,454.808,391.893,455.527z"/>
															</g>
														</g>
													</g>
												</g>
											</g>
										</g>
									</g>
								</g>
							</g>
						</g>
						<g>
							<g>
								<g>
									<g>
										<g>
											<g>
												<g>
													<g>
														<g>
															<path style="fill:#424208;" d="M391.887,455.856c-0.044,1.601-0.176,2.702-0.176,2.702l-28.131-0.106
																c0,0-0.135-1.089-0.022-2.703L391.887,455.856z"/>
														</g>
													</g>
												</g>
											</g>
										</g>
									</g>
								</g>
							</g>
						</g>
					</g>
					<g>
						<g>
							<g>
								<g>
									<g>
										<g>
											<g>
												<g>
													<g>
														<g>
															<g>
																<path style="fill:#FFFFFF;" d="M378.025,437.899c-0.112,0-0.224-0.024-0.33-0.073
																	c-0.712-0.325-6.97-3.263-7.448-6.311c-0.095-0.607-0.016-1.507,0.9-2.343c0.87-0.794,1.722-0.78,2.284-0.629
																	c2.836,0.761,4.964,7.057,5.362,8.311c0.096,0.303,0.005,0.633-0.233,0.843
																	C378.409,437.831,378.218,437.9,378.025,437.899z M372.833,430.066c-0.159-0.001-0.353,0.063-0.605,0.292
																	c-0.418,0.381-0.431,0.686-0.396,0.909c0.202,1.29,2.584,2.992,4.756,4.199c-0.983-2.45-2.412-5.062-3.573-5.373
																	C372.96,430.078,372.9,430.066,372.833,430.066z"/>
															</g>
														</g>
													</g>
												</g>
											</g>
										</g>
									</g>
								</g>
							</g>
						</g>
						<g>
							<g>
								<g>
									<g>
										<g>
											<g>
												<g>
													<g>
														<g>
															<g>
																<path style="fill:#FFFFFF;" d="M379.39,437.904c-0.193-0.001-0.384-0.071-0.534-0.206
																	c-0.236-0.212-0.324-0.543-0.226-0.845c0.407-1.251,2.583-7.53,5.424-8.27c0.563-0.147,1.415-0.153,2.279,0.647
																	c0.91,0.843,0.982,1.743,0.883,2.35c-0.501,3.043-6.781,5.935-7.496,6.254
																	C379.615,437.882,379.502,437.905,379.39,437.904z M384.641,430.111c-0.066,0-0.126,0.011-0.182,0.025
																	c-1.162,0.302-2.611,2.903-3.612,5.345c2.181-1.192,4.576-2.876,4.787-4.162c0.037-0.223,0.026-0.528-0.39-0.912
																	C384.994,430.176,384.8,430.111,384.641,430.111z"/>
															</g>
														</g>
													</g>
												</g>
											</g>
										</g>
									</g>
								</g>
							</g>
						</g>
						<g>
							<g>
								<g>
									<g>
										<g>
											<g>
												<g>
													<g>
														<g>
															<g>
																<path style="fill:#FFFFFF;" d="M378.692,435.557c0,0-1.308-0.623-1.416,1.173c-0.088,1.456,0.947,1.772,1.372,1.529
																	c0,0,0.89,0.271,1.339-0.441S380.149,434.844,378.692,435.557z"/>
															</g>
														</g>
													</g>
												</g>
											</g>
										</g>
									</g>
								</g>
							</g>
						</g>
						<g>
							<g>
								<g>
									<g>
										<g>
											<g>
												<g>
													<g>
														<g>
															<g>
																<path style="fill:#FFFFFF;" d="M372.919,440.444c-0.167-0.001-0.334-0.053-0.478-0.161
																	c-0.354-0.266-0.426-0.769-0.16-1.123c2.545-3.388,6.439-2.633,6.604-2.6c0.434,0.089,0.713,0.513,0.624,0.947
																	c-0.089,0.433-0.512,0.711-0.944,0.625c-0.132-0.026-3.08-0.566-5.001,1.991
																	C373.406,440.334,373.164,440.445,372.919,440.444z"/>
															</g>
														</g>
													</g>
												</g>
											</g>
										</g>
									</g>
								</g>
							</g>
						</g>
						<g>
							<g>
								<g>
									<g>
										<g>
											<g>
												<g>
													<g>
														<g>
															<g>
																<path style="fill:#FFFFFF;" d="M385.208,441.299c-0.305-0.001-0.596-0.177-0.729-0.473
																	c-1.289-2.863-5.825-3.574-5.87-3.58c-0.438-0.066-0.74-0.474-0.675-0.912c0.066-0.439,0.475-0.74,0.912-0.675
																	c0.222,0.033,5.452,0.856,7.095,4.509c0.182,0.404,0.001,0.879-0.402,1.061
																	C385.431,441.277,385.319,441.3,385.208,441.299z"/>
															</g>
														</g>
													</g>
												</g>
											</g>
										</g>
									</g>
								</g>
							</g>
						</g>
					</g>
					<g>
						<g>
							<g>
								<g>
									<g>
										<g>
											<g>
												<g>
													<g>
														<path style="fill:#FFFFFF;" d="M381.894,442.566c-0.067,0-0.134-0.009-0.202-0.027
															c-3.574-0.94-6.492-0.167-6.521-0.159c-0.428,0.116-0.868-0.136-0.985-0.563c-0.117-0.427,0.135-0.868,0.563-0.985
															c0.135-0.037,3.366-0.893,7.351,0.155c0.428,0.113,0.685,0.551,0.572,0.98
															C382.577,442.329,382.25,442.568,381.894,442.566z"/>
													</g>
												</g>
											</g>
										</g>
									</g>
								</g>
							</g>
						</g>
					</g>
					<g>
						<g>
							<g>
								<g>
									<g>
										<g>
											<g>
												<g>
													<g>
														<path style="fill:#FFFFFF;" d="M380.681,445.103c-0.066,0-0.134-0.009-0.201-0.027
															c-3.551-0.934-6.493-0.166-6.523-0.159c-0.427,0.115-0.868-0.138-0.983-0.565c-0.116-0.427,0.136-0.866,0.563-0.983
															c0.135-0.037,3.366-0.893,7.351,0.155c0.428,0.113,0.685,0.552,0.572,0.98
															C381.365,444.866,381.038,445.104,380.681,445.103z"/>
													</g>
												</g>
											</g>
										</g>
									</g>
								</g>
							</g>
						</g>
					</g>
					<g>
						<g>
							<g>
								<g>
									<g>
										<g>
											<g>
												<g>
													<g>
														<path style="fill:#FFFFFF;" d="M379.257,447.987c-0.067,0-0.134-0.009-0.202-0.026
															c-3.551-0.934-6.493-0.167-6.523-0.159c-0.427,0.116-0.867-0.138-0.983-0.565c-0.115-0.427,0.136-0.867,0.563-0.983
															c0.136-0.037,3.366-0.893,7.351,0.155c0.428,0.113,0.684,0.552,0.572,0.98
															C379.94,447.75,379.613,447.988,379.257,447.987z"/>
													</g>
												</g>
											</g>
										</g>
									</g>
								</g>
							</g>
						</g>
					</g>
				</g>
				<g>
					<g>
						<g>
							<g>
								<g>
									<g>
										<g>
											<g>
												<g>
													<path style="fill:#453F3F;" d="M372.362,241.876c-0.056,0.289-0.927,4.716-3.483,9.182
														c-1.506,2.632-3.598,5.276-6.45,7.096c-2.396,1.529-5.071,2.298-7.985,2.302c-0.039-0.427-0.074-0.842-0.11-1.249
														c2.719,0.013,5.204-0.692,7.422-2.105c2.548-1.626,4.46-4.006,5.87-6.411c2.604-4.44,3.495-8.977,3.508-9.047
														c0.064-0.339,0.392-0.563,0.729-0.499C372.202,241.211,372.426,241.536,372.362,241.876z"/>
												</g>
											</g>
										</g>
									</g>
								</g>
							</g>
						</g>
					</g>
				</g>
			</g>
		</g>
		<g>
			<g>
				<g>
					<g>
						<g>
							<g>
								<g>
									<g>
										<path style="fill:#FFFFFF;" d="M353.009,252.7l-1.579,9.411c0,0,17.8,4.049,29.039,1.213
											c11.239-2.837,38.337-5.44,42.966-5.609l-2.92-12.54C420.515,245.175,385.724,255.992,353.009,252.7z"/>
									</g>
								</g>
							</g>
						</g>
					</g>
				</g>
			</g>
			<g>
				<g>
					<g>
						<g>
							<g>
								<g>
									<path style="fill:#EF6931;" d="M391.525,134.825c0,0,6.668-13.422-7.358-20.937c-9.812-5.257-28.789-6.284-34.628,5.643
										c-5.43,11.091,6.653,20.485,6.653,20.485S382.121,145.663,391.525,134.825z"/>
								</g>
							</g>
						</g>
					</g>
				</g>
			</g>
			<g>
				<g>
					<g>
						<g>
							<g>
								<g>
									<g>
										<path style="fill:#0C0B0B;" d="M368.707,119.173c0,0-12.155,1.609-7.777,8.104c2.318,3.437,15.474,5.358,15.474,5.358
											S379.028,120.769,368.707,119.173z"/>
									</g>
								</g>
							</g>
						</g>
					</g>
				</g>
			</g>
			<g>
				<g>
					<g>
						<g>
							<g>
								<g>
									<g>
										<g>
											<g>
												<path style="fill:#EF6931;" d="M419.12,241.864c0,0-45.057,14.943-64.421,7.325c0,0-6.071-1.915-8.466-13.832
													c-0.079-0.389-0.152-0.789-0.222-1.201c-1.005-5.894-1.132-14.046,0.62-25.285c2.102-13.483-0.709-20.384-1.874-33.821
													c-0.041-0.473-0.083-0.955-0.122-1.445c-0.124-1.454-0.239-2.983-0.354-4.609c-1.239-17.739-6.855-25.341,2-30.574
													c8.855-5.231,20.459-9.225,20.459-9.225s9.849,3.166,16.807,0.063c0,0,10.552,5.22,18.668,8.213
													c8.114,2.993,5.364,24.459,7.878,36.8c2.516,12.343,6.819,22.169,10.663,42.642
													C424.272,235.639,419.12,241.864,419.12,241.864z"/>
											</g>
										</g>
									</g>
								</g>
							</g>
						</g>
					</g>
				</g>
			</g>
			<g>
				<path style="fill:#BB4000;" d="M384.587,139.849c-0.241,0-0.454-0.172-0.497-0.417c-0.048-0.275,0.135-0.536,0.41-0.585
					c4.679-0.822,6.98-5.233,7.003-5.277c0.127-0.248,0.431-0.346,0.679-0.22c0.248,0.127,0.347,0.431,0.22,0.679
					c-0.102,0.2-2.558,4.905-7.728,5.812C384.645,139.846,384.616,139.849,384.587,139.849z"/>
			</g>
			<g>
				<g>
					<g>
						<g>
							<polygon style="fill:#BB4000;" points="368.72,165.131 369.625,175.522 399.381,173.274 397.529,163.587 							"/>
						</g>
					</g>
				</g>
			</g>
			<g>
				<g>
					<g>
						<g>
							<g>
								<g>
									<g>
										<path style="fill:#BB4000;" d="M420.276,215.085c-0.336-0.001-0.62-0.262-0.643-0.603
											c-0.357-5.161-4.231-18.27-6.545-26.103c-0.45-1.523-0.839-2.839-1.119-3.818c-1.678-5.868-3.557-19.653-3.636-20.237
											c-0.048-0.355,0.201-0.681,0.555-0.729c0.356-0.048,0.681,0.2,0.729,0.555c0.019,0.142,1.945,14.276,3.597,20.055
											c0.279,0.974,0.667,2.287,1.116,3.807c2.33,7.883,6.229,21.077,6.595,26.381c0.025,0.357-0.245,0.666-0.601,0.691
											C420.308,215.085,420.292,215.085,420.276,215.085z"/>
									</g>
								</g>
							</g>
						</g>
					</g>
				</g>
			</g>
			<g>
				<g>
					<g>
						<g>
							<g>
								<g>
									<g>
										<g>
											<path style="fill:#BB4000;" d="M421.414,235.629c0,0,1.897,5.895-0.83,9.842c0,0-40.48,13.88-67.575,7.229
												c0,0-2.43-2.951-3.089-8.99C349.921,243.71,382.505,251.942,421.414,235.629z"/>
										</g>
									</g>
								</g>
							</g>
						</g>
					</g>
				</g>
			</g>
			<g>
				<g>
					<g>
						<g>
							<g>
								<g>
									<g>
										<g>
											<path style="fill:#BB4000;" d="M379.922,150.174c7.494,0.028,9.866-6.68,9.89-6.75c0.087-0.256-0.05-0.536-0.306-0.623
												c-0.258-0.088-0.535,0.05-0.623,0.306l0,0c-0.092,0.267-2.339,6.546-9.71,6.058c-7.659-0.507-17.481-5.605-17.58-5.657
												c-0.241-0.126-0.537-0.033-0.663,0.207c-0.126,0.24-0.033,0.536,0.207,0.662c0.409,0.214,10.102,5.245,17.97,5.767
												C379.385,150.163,379.657,150.173,379.922,150.174z"/>
										</g>
									</g>
								</g>
							</g>
						</g>
					</g>
				</g>
			</g>
			<g>
				<g>
					<g>
						<g>
							<g>
								<g>
									<g>
										<g>
											<path style="fill:#BB4000;" d="M409.701,210.801c0,0,5.75,11.364,3.811,20.192c0,0-21.61,10.033-47.09,4.813
												c0,0,0.588-11.07-0.376-21.188C366.046,214.618,393.995,210.495,409.701,210.801z"/>
										</g>
									</g>
								</g>
							</g>
						</g>
					</g>
				</g>
			</g>
		</g>
		<g>
			<g>
				<g>
					<g>
						<g>
							<g>
								<g>
									<g>
										<g>
											<path style="fill:#FFC2A9;" d="M383.913,125.749l-0.456,4.448c-0.564,0.367-1.213,0.544-1.688,0.941
												c-5.382,4.51-12.398-0.452-15.974-4.029l1.614-14.142l14.536,11.258L383.913,125.749z"/>
										</g>
									</g>
								</g>
							</g>
						</g>
					</g>
				</g>
				<g>
					<g>
						<g>
							<g>
								<g>
									<g>
										<g>
											<path style="fill:#0C0B0B;" d="M383.913,125.749l-0.456,4.448c-0.564,0.367-1.127,0.679-1.688,0.941
												c-6.309-3.278-10.388-10.668-10.388-10.668l10.564,3.755L383.913,125.749z"/>
										</g>
									</g>
								</g>
							</g>
						</g>
					</g>
				</g>
				<g>
					<g>
						<g>
							<g>
								<g>
									<path style="fill:#EFAD1A;" d="M363.839,101.509c0,0-2.303-2.685-2.822-5.784c-0.518-3.099,2.664-5.109,2.664-5.109
										s-1.501-2.146,0.298-4.917c1.984-3.055,6.808-2.742,6.808-2.742s-1.055-2.566,2.155-4.321
										c3.21-1.755,6.51,1.085,6.51,1.085s1.108-3.088,4.646-3.251c3.538-0.163,4.302,3.373,4.302,3.373s7.508-3.211,10.863,1.631
										c4.918,7.098-5.76,11.092-5.76,11.092c-16.919-5.711-28.851,9.809-28.851,9.809L363.839,101.509"/>
								</g>
							</g>
						</g>
					</g>
					<g>
						<g>
							<g>
								<g>
									<g>
										<g>
											<g>
												<path style="fill:#EFAD1A;" d="M389.937,89.096c0,0,11.811,6.766,3.876,15.738
													C393.813,104.834,389.388,92.009,389.937,89.096z"/>
											</g>
										</g>
									</g>
								</g>
							</g>
						</g>
					</g>
					<g>
						<g>
							<g>
								<g>
									<g>
										<g>
											<g>
												<path style="fill:#F59876;" d="M391.493,106.608c0,0,2.832-2.725,3.954,0.406c1.122,3.131-0.596,9.059-4.339,7.676
													L391.493,106.608z"/>
											</g>
										</g>
									</g>
								</g>
							</g>
						</g>
					</g>
					<g>
						<g>
							<g>
								<g>
									<g>
										<g>
											<g>
												<path style="fill:#FFC2A9;" d="M393.114,117.35c0,0-0.93,9.197-10.493,8.195c-9.504-0.993-15.216-9.122-15.518-9.503
													c-0.005-0.007-0.01-0.01-0.01-0.01l0.094-1.943l0.489-10.087l0.26-5.391c0,0-0.224-9.779,9.132-10.598
													c6.836-0.6,13.008,1.159,15.821,4.981c1.036,1.41,1.615,3.101,1.604,5.059l-0.691,9.661l-0.169,2.368L393.114,117.35z"
													/>
											</g>
										</g>
									</g>
								</g>
							</g>
						</g>
					</g>
					<g>
						<path style="fill:#0C0B0B;" d="M384.988,109.789c-0.125,0-0.242-0.078-0.286-0.202c-0.056-0.158,0.027-0.331,0.185-0.387
							l2.846-1.005l-1.635-1.475c-0.064-0.057-0.1-0.139-0.1-0.225v-6.112c0-0.167,0.136-0.303,0.303-0.303
							c0.167,0,0.303,0.136,0.303,0.303v5.978l1.913,1.726c0.079,0.071,0.115,0.179,0.094,0.284
							c-0.021,0.105-0.095,0.191-0.196,0.226l-3.326,1.175C385.056,109.784,385.022,109.789,384.988,109.789z"/>
					</g>
					<g>
						<g>
							<g>
								<g>
									<path style="fill:#F59876;" d="M383.324,116.42c-1.194-0.307-1.974-0.993-2.023-1.037c-0.162-0.146-0.176-0.396-0.03-0.558
										c0.146-0.162,0.394-0.176,0.557-0.031l0,0c0.015,0.014,1.53,1.334,3.451,0.886c0.213-0.05,0.425,0.082,0.474,0.295
										c0.049,0.212-0.082,0.425-0.295,0.474C384.666,116.635,383.94,116.578,383.324,116.42z"/>
								</g>
							</g>
						</g>
					</g>
					<g>
						<g>
							<path style="fill:#0C0B0B;" d="M384.979,114.379c-3.137-0.181-4.43-2.789-4.446-2.822c-0.106-0.222-0.012-0.488,0.21-0.595
								c0.221-0.106,0.488-0.013,0.594,0.209l0,0c0.065,0.132,1.632,3.239,5.753,2.061c0.237-0.067,0.483,0.069,0.551,0.306
								c0.067,0.237-0.07,0.484-0.306,0.552C386.456,114.34,385.672,114.419,384.979,114.379z"/>
						</g>
					</g>
					<g>
						<g>
							<path style="fill:#EFAD1A;" d="M384.34,99.124c0.9-1.056,0.176-2.38-1.32-2.661c-1.642-0.308-5.012-0.627-6.061,1.648
								c-1.405,3.048,3.604,2.274,5.714,1.902C383.411,99.883,383.98,99.547,384.34,99.124z"/>
						</g>
					</g>
					<g>
						<g>
							<path style="fill:#EFAD1A;" d="M388.908,99.662c-0.545-1.109,0.265-2.348,1.521-2.499c1.378-0.167,4.152-0.201,4.608,2.116
								c0.611,3.105-3.298,1.932-4.936,1.393C389.527,100.483,389.126,100.105,388.908,99.662z"/>
						</g>
					</g>
					<g>
						<g>
							<g>
								<g>
									<g>
										<g>
											<g>
												<path style="fill:#EFAD1A;" d="M392.889,92.994c-0.101,0.315-0.267,0.58-0.503,0.781
													c-2.059,1.759-6.38,0.617-10.321-1.059c-3.942-1.673-7.103,0.986-7.103,0.986c0.732,4.013-3.134,3.935-2.621,6.972
													c0.515,3.038-0.199,6.904-0.199,6.904l-2.357-0.56c-0.372-1.441-1.453-3.049-4.107-3.916
													c-2.842,0.227-2.408-5.59-0.503-10.034c0,0,2.539-4.236,11.894-5.056C383.904,87.414,390.076,89.171,392.889,92.994z"/>
											</g>
										</g>
									</g>
								</g>
							</g>
						</g>
					</g>
					<g>
						<g>
							<g>
								<g>
									<g>
										<g>
											<g>
												<g>
													<path style="fill:#F59876;" d="M381.205,107.618c-0.069,0.67-1.503,1.071-3.204,0.896
														c-1.701-0.175-3.024-0.859-2.956-1.528c0.069-0.669,1.503-1.071,3.204-0.896
														C379.951,106.265,381.274,106.949,381.205,107.618z"/>
												</g>
											</g>
										</g>
									</g>
								</g>
							</g>
						</g>
					</g>
					<g style="opacity:0.8;">
						<g>
							<g>
								<g>
									<g>
										<g>
											<g>
												<g>
													<path style="fill:#F59876;" d="M393.633,110.082c-0.24-0.001-0.491-0.014-0.746-0.04
														c-1.7-0.174-3.023-0.859-2.954-1.528c0.069-0.67,1.503-1.071,3.203-0.897c0.23,0.023,0.453,0.057,0.666,0.098
														L393.633,110.082z"/>
												</g>
											</g>
										</g>
									</g>
								</g>
							</g>
						</g>
					</g>
					<g>
						<g>
							<g>
								<g>
									<g>
										<g>
											<g>
												<g>
													<path style="fill:#0C0B0B;" d="M382.144,103.99c-0.094,0.919-0.588,1.622-1.102,1.569
														c-0.515-0.053-0.855-0.841-0.761-1.76c0.094-0.92,0.588-1.622,1.102-1.569
														C381.898,102.283,382.238,103.071,382.144,103.99z"/>
												</g>
											</g>
										</g>
									</g>
								</g>
							</g>
						</g>
						<g>
							<g>
								<g>
									<g>
										<g>
											<g>
												<g>
													<path style="fill:#0C0B0B;" d="M391.242,104.924c-0.094,0.92-0.588,1.622-1.103,1.57
														c-0.514-0.053-0.855-0.841-0.761-1.761s0.588-1.622,1.102-1.569C390.995,103.216,391.336,104.004,391.242,104.924z"/>
												</g>
											</g>
										</g>
									</g>
								</g>
							</g>
						</g>
					</g>
					<g>
						<g>
							<g>
								<g>
									<g>
										<g>
											<g>
												<path style="fill:#0C0B0B;" d="M370.479,112.619c-0.054,0.097-1.552,2.781-3.377,3.424
													c-0.005-0.006-0.008-0.01-0.008-0.01l0.095-1.943C367.189,114.09,368.725,113.987,370.479,112.619z"/>
											</g>
										</g>
									</g>
								</g>
							</g>
						</g>
					</g>
					<g>
						<g>
							<g>
								<g>
									<g>
										<g>
											<g>
												<path style="fill:#FFC2A9;" d="M369.45,106.06c0,0-3.17-5.316-6.262-1.711c-2.548,2.97,0.794,11.735,5.48,9.33
													L369.45,106.06z"/>
											</g>
										</g>
									</g>
								</g>
							</g>
						</g>
					</g>
					<g>
						<g>
							<g>
								<g>
									<g>
										<g>
											<g>
												<g>
													<g>
														<path style="fill:#FFFFFF;" d="M365.105,111.728c-0.048,0.468,0.292,0.886,0.76,0.934
															c0.468,0.048,0.886-0.292,0.934-0.76c0.048-0.468-0.292-0.886-0.76-0.934
															C365.571,110.92,365.153,111.261,365.105,111.728z"/>
													</g>
												</g>
											</g>
										</g>
									</g>
								</g>
							</g>
						</g>
					</g>
					<g>
						<g>
							<g>
								<g>
									<g>
										<g>
											<g>
												<path style="fill:#0C0B0B;" d="M368.319,112.14c0.014,0.001,0.028,0.002,0.042,0.002
													c0.21-0.001,0.379-0.173,0.378-0.383c-0.029-4.247-3.414-6.065-3.558-6.14c-0.186-0.098-0.416-0.025-0.513,0.161
													c-0.097,0.186-0.025,0.415,0.16,0.513l0,0c0.127,0.067,3.125,1.692,3.15,5.471
													C367.979,111.96,368.128,112.12,368.319,112.14z"/>
											</g>
										</g>
									</g>
								</g>
							</g>
						</g>
					</g>
					<g>
						<g>
							<g>
								<g>
									<g>
										<g>
											<g>
												<path style="fill:#0C0B0B;" d="M365.024,109.484c0.084,0.009,0.171-0.01,0.247-0.06l0,0
													c0.356-0.233,1.421-0.786,2.056-0.552c0.197,0.072,0.416-0.028,0.488-0.226c0.072-0.197-0.029-0.416-0.226-0.488
													c-1.107-0.408-2.572,0.522-2.736,0.63c-0.175,0.115-0.224,0.351-0.109,0.527
													C364.809,109.414,364.914,109.473,365.024,109.484z"/>
											</g>
										</g>
									</g>
								</g>
							</g>
						</g>
					</g>
					<g>
						<g>
							<g>
								<g>
									<g>
										<g>
											<g>
												<g>
													<g>
														<path style="fill:#FFFFFF;" d="M399.518,105.616l-5.603-0.378l-0.08,0.775c0.004,0,0.007,0.001,0.011,0.001
															l5.62,0.379c0.214,0.015,0.4-0.148,0.415-0.362C399.895,105.816,399.743,105.624,399.518,105.616z"/>
													</g>
												</g>
											</g>
										</g>
									</g>
								</g>
							</g>
						</g>
						<g>
							<g>
								<g>
									<g>
										<g>
											<g>
												<g>
													<g>
														<g>
															<path style="fill:#FFFFFF;" d="M378.354,109.846c-3.48-0.357-6.021-3.479-5.664-6.959
																c0.357-3.48,3.479-6.021,6.959-5.664c3.48,0.357,6.021,3.479,5.664,6.959
																C384.956,107.662,381.834,110.203,378.354,109.846z M379.572,97.97c-3.068-0.315-5.821,1.926-6.135,4.994
																c-0.315,3.068,1.926,5.82,4.994,6.135c3.068,0.315,5.821-1.926,6.135-4.994
																C384.88,101.037,382.64,98.284,379.572,97.97z"/>
														</g>
													</g>
												</g>
											</g>
										</g>
									</g>
								</g>
							</g>
							<g>
								<g>
									<g>
										<g>
											<g>
												<g>
													<g>
														<g>
															<path style="fill:#FFFFFF;" d="M393.261,111.375c-3.48-0.357-6.021-3.479-5.664-6.959
																c0.357-3.48,3.479-6.021,6.959-5.664c3.48,0.357,6.022,3.479,5.665,6.959
																C399.863,109.191,396.741,111.732,393.261,111.375z M394.479,99.498c-3.068-0.315-5.821,1.926-6.135,4.994
																c-0.315,3.068,1.926,5.821,4.994,6.135c3.068,0.315,5.821-1.926,6.135-4.994
																C399.787,102.566,397.547,99.813,394.479,99.498z"/>
														</g>
													</g>
												</g>
											</g>
										</g>
									</g>
								</g>
							</g>
							<g>
								<g>
									<g>
										<g>
											<g>
												<g>
													<g>
														<g>
															<path style="fill:#FFFFFF;" d="M365.128,103.439c-0.044-0.005-0.089-0.017-0.131-0.038
																c-0.185-0.093-0.259-0.319-0.166-0.505c2.109-4.177,8.5-1.272,8.564-1.242c0.188,0.087,0.27,0.31,0.183,0.499
																c-0.087,0.188-0.31,0.27-0.499,0.183c-0.058-0.027-5.795-2.631-7.577,0.899
																C365.429,103.378,365.278,103.455,365.128,103.439z"/>
														</g>
													</g>
												</g>
											</g>
										</g>
									</g>
								</g>
							</g>
						</g>
					</g>
					<g>
						<g>
							<g>
								<g>
									<g>
										<g>
											<g>
												<g>
													<path style="fill:#FFFFFF;" d="M388.114,103.479c-0.096-0.01-0.189-0.057-0.255-0.138
														c-0.929-1.157-2.589-0.426-2.606-0.419c-0.189,0.085-0.411,0.001-0.497-0.188c-0.085-0.189-0.001-0.412,0.188-0.497
														c0.76-0.343,2.469-0.651,3.5,0.633c0.13,0.162,0.104,0.398-0.058,0.528
														C388.308,103.463,388.209,103.489,388.114,103.479z"/>
												</g>
											</g>
										</g>
									</g>
								</g>
							</g>
						</g>
					</g>
				</g>
			</g>
			<g>
				<g>
					<g>
						<g>
							<g>
								<g>
									<g>
										<path style="fill:#EF6931;" d="M365.765,126.501c0,0,8.736,6.462,11.284,6.445c0,0-3.325,3.801-8.566,4.295
											c-6.874,0.649-18.453-0.888-18.453-0.888S358.588,129.716,365.765,126.501z"/>
									</g>
								</g>
							</g>
						</g>
					</g>
				</g>
				<g>
					<path style="fill:#BB4000;" d="M364.198,140.929c-7.07,0-12.315-4.779-12.539-4.987c-0.204-0.189-0.217-0.508-0.028-0.713
						c0.189-0.205,0.509-0.217,0.713-0.028c0.053,0.049,5.398,4.904,12.265,4.713c0.277-0.012,0.511,0.212,0.519,0.49
						c0.008,0.279-0.212,0.511-0.491,0.519C364.49,140.928,364.344,140.929,364.198,140.929z"/>
				</g>
				<g>
					<g>
						<g>
							<g>
								<g>
									<g>
										<path style="fill:#EF6931;" d="M383.934,126.715c0,0-1.728,4.996-6.885,6.23c0,0,1.135,4.7,6.349,3.983
											c5.215-0.716,8.133-3.699,8.133-3.699S388.048,126.731,383.934,126.715z"/>
									</g>
								</g>
							</g>
						</g>
					</g>
				</g>
				<g>
					<g>
						<g>
							<g>
								<g>
									<g>
										<g>
											<g>
												<path style="fill:#FFFFFF;" d="M376.726,218.59c0.196,0.001,0.359-0.152,0.369-0.35
													c1.699-33.978-7.615-84.988-7.709-85.499c-0.037-0.2-0.23-0.331-0.429-0.295c-0.2,0.037-0.332,0.229-0.295,0.429
													c0.094,0.51,9.392,51.437,7.698,85.329c-0.01,0.203,0.146,0.376,0.349,0.386
													C376.714,218.59,376.72,218.59,376.726,218.59z"/>
											</g>
										</g>
									</g>
								</g>
							</g>
						</g>
					</g>
				</g>
				<g>
					<g>
						<g>
							<g>
								<g>
									<g>
										<g>
											<g>
												<path style="fill:#FFFFFF;" d="M399.441,216.386c0.004,0,0.007,0,0.011,0c0.203-0.005,0.364-0.174,0.358-0.378
													c-1.08-41.043-14.857-82.969-14.996-83.387c-0.064-0.193-0.272-0.298-0.466-0.233c-0.193,0.064-0.297,0.272-0.233,0.465
													c0.139,0.418,13.882,42.243,14.959,83.174C399.079,216.227,399.242,216.385,399.441,216.386z"/>
											</g>
										</g>
									</g>
								</g>
							</g>
						</g>
					</g>
				</g>
			</g>
		</g>
		<g>
			<g>
				<g>
					<g>
						<g>
							<g>
								<path style="fill:#EF6931;" d="M366.346,236.453c0,0-21.466,2.782-35.789-6.469c-8.132-5.253-13.961-14.385-12.251-30.105
									c0.025-0.238,0.053-0.478,0.082-0.718c4.226-34.735,20.235-53.346,25.897-58.949c1.66-1.643,3.988-2.48,6.298-2.139
									c6.45,0.951,10.47,10.442-1.787,54.712c-4.604,21.827,16.518,24.476,16.518,24.476L366.346,236.453z"/>
							</g>
						</g>
					</g>
				</g>
			</g>
			<g>
				<g>
					<g>
						<g>
							<g>
								<g>
									<g>
										<path style="fill:#BB4000;" d="M348.163,197.789c-0.068-0.003-0.138-0.016-0.205-0.041
											c-0.347-0.128-0.524-0.513-0.396-0.859c0.096-0.26,9.608-26.126,10.309-39.967c0.019-0.369,0.326-0.644,0.702-0.634
											c0.369,0.019,0.653,0.333,0.635,0.702c-0.711,14.045-10.293,40.102-10.39,40.363
											C348.714,197.631,348.445,197.8,348.163,197.789z"/>
									</g>
								</g>
							</g>
						</g>
					</g>
				</g>
				<g>
					<g>
						<g>
							<g>
								<g>
									<g>
										<path style="fill:#BB4000;" d="M357.014,167.921c-0.12-0.005-0.239-0.042-0.346-0.114
											c-0.306-0.206-0.387-0.622-0.181-0.928l4.158-6.174c0.207-0.307,0.622-0.388,0.929-0.181
											c0.306,0.206,0.387,0.622,0.181,0.928l-4.159,6.174C357.462,167.826,357.238,167.93,357.014,167.921z"/>
									</g>
								</g>
							</g>
						</g>
					</g>
				</g>
			</g>
			<g>
				<g>
					<g>
						<g>
							<g>
								<g>
									<path style="fill:#BB4000;" d="M361.768,237.698c-0.259-0.01-0.501-0.173-0.599-0.431
										c-2.22-5.842-1.012-22.041-0.96-22.727c0.028-0.368,0.352-0.644,0.718-0.616c0.368,0.028,0.644,0.35,0.616,0.718
										c-0.013,0.165-1.239,16.586,0.876,22.15c0.131,0.346-0.043,0.732-0.388,0.863
										C361.946,237.688,361.856,237.702,361.768,237.698z"/>
								</g>
							</g>
						</g>
					</g>
				</g>
			</g>
			<g>
				<g>
					<g>
						<g>
							<g>
								<g>
									<path style="fill:#BB4000;" d="M366.992,236.283c-0.093-0.359-0.462-0.57-0.818-0.477
										c-0.093,0.026-8.996,2.318-18.878-0.277c-0.461-0.121-0.891,0.267-0.825,0.738c0.001,0.005,0.001,0.01,0.002,0.014
										c0.037,0.261,0.23,0.476,0.485,0.544c3.036,0.802,5.962,1.161,8.584,1.267c6.192,0.248,10.695-0.917,10.975-0.991
										C366.875,237.006,367.087,236.639,366.992,236.283z"/>
								</g>
							</g>
						</g>
					</g>
				</g>
			</g>
			<g>
				<g>
					<g>
						<g>
							<g>
								<g>
									<path style="fill:#BB4000;" d="M361.155,215.276c-0.273-0.011-0.553-0.031-0.841-0.061
										c-2.857-0.299-6.969-1.721-10.336-6.798c-0.204-0.308-0.12-0.723,0.188-0.927c0.308-0.204,0.723-0.12,0.927,0.188
										c5.872,8.856,14.131,5.728,14.214,5.696c0.344-0.136,0.732,0.033,0.868,0.377c0.136,0.344-0.033,0.732-0.377,0.868
										C365.711,214.652,363.82,215.383,361.155,215.276z"/>
								</g>
							</g>
						</g>
					</g>
				</g>
			</g>
			<g>
				<g>
					<g>
						<g>
							<g>
								<g>
									<path style="fill:#BB4000;" d="M330.557,229.985c-8.132-5.253-13.961-14.385-12.251-30.105
										C323.908,206.598,332.842,219.335,330.557,229.985z"/>
								</g>
							</g>
						</g>
					</g>
				</g>
			</g>
		</g>
		<g>
			<g>
				<path style="fill:#777D15;" d="M470.226,191.997h-20.598c-1.004,0-1.818-0.814-1.818-1.818v-20.598
					c0-1.004,0.814-1.818,1.818-1.818h20.598c1.004,0,1.818,0.814,1.818,1.818v20.598
					C472.044,191.184,471.23,191.997,470.226,191.997z"/>
			</g>
			<g>
				<g>
					<path style="fill:#FFFFFF;" d="M456.235,186.389c-0.065,0-0.13-0.006-0.196-0.018c-0.328-0.06-0.609-0.268-0.764-0.563
						l-2.177-4.164c-0.277-0.53-0.072-1.184,0.458-1.461c0.53-0.277,1.184-0.072,1.461,0.458l1.535,2.936l10.257-9.103
						c0.447-0.397,1.131-0.356,1.528,0.091s0.356,1.132-0.091,1.528l-11.293,10.023
						C456.754,186.293,456.497,186.389,456.235,186.389z"/>
				</g>
			</g>
			<g>
				<path style="fill:#777D15;" d="M451.782,191.823l0.849,5.477c0.143,0.921,1.365,1.148,1.829,0.34l3.355-5.844L451.782,191.823z"
					/>
			</g>
		</g>
	</g>
</g>
</svg>
