<svg width="61" height="61" viewBox="0 0 61 61" fill="none" xmlns="http://www.w3.org/2000/svg">
<g id="fluent:food-24-filled">
<path id="Vector" d="M45.4133 8.47803C46.0256 8.47811 46.6166 8.70292 47.0742 9.10982C47.5318 9.51671 47.8241 10.0774 47.8958 10.6855L47.9133 10.978V50.978C47.9126 51.6152 47.6686 52.2281 47.2311 52.6914C46.7937 53.1548 46.1959 53.4336 45.5598 53.471C44.9237 53.5083 44.2973 53.3013 43.8087 52.8924C43.3201 52.4834 43.006 51.9033 42.9308 51.2705L42.9133 50.978V38.478H40.4133C39.8009 38.4779 39.2099 38.2531 38.7523 37.8462C38.2948 37.4393 38.0024 36.8787 37.9308 36.2705L37.9133 35.978V20.978C37.9133 15.453 41.6633 8.47803 45.4133 8.47803ZM30.4133 8.47803C31.0256 8.47811 31.6166 8.70292 32.0742 9.10982C32.5318 9.51671 32.8241 10.0774 32.8958 10.6855L32.9133 10.978V23.478C32.913 25.6952 32.1762 27.8495 30.8187 29.6025C29.4612 31.3555 27.5598 32.6079 25.4133 33.163V50.978C25.4126 51.6152 25.1686 52.2281 24.7311 52.6914C24.2937 53.1548 23.6959 53.4336 23.0598 53.471C22.4237 53.5083 21.7973 53.3013 21.3087 52.8924C20.8201 52.4834 20.506 51.9033 20.4308 51.2705L20.4133 50.978V33.163C18.3519 32.6301 16.5143 31.4535 15.1677 29.8043C13.8211 28.1551 13.0357 26.1193 12.9258 23.993L12.9133 23.478V10.978C12.914 10.3408 13.158 9.72795 13.5954 9.26461C14.0328 8.80127 14.6307 8.52244 15.2668 8.4851C15.9029 8.44775 16.5292 8.65471 17.0178 9.06369C17.5065 9.47267 17.8205 10.0528 17.8958 10.6855L17.9133 10.978V23.478C17.9133 24.3557 18.1443 25.2179 18.5832 25.978C19.022 26.738 19.6532 27.3692 20.4133 27.808V10.978C20.414 10.3408 20.658 9.72795 21.0954 9.26461C21.5328 8.80127 22.1307 8.52244 22.7668 8.4851C23.4029 8.44775 24.0292 8.65471 24.5178 9.06369C25.0065 9.47267 25.3205 10.0528 25.3958 10.6855L25.4133 10.978L25.4158 27.808C26.1134 27.4048 26.7033 26.8388 27.1351 26.1585C27.5669 25.4781 27.8279 24.7035 27.8958 23.9005L27.9133 23.478V10.978C27.9133 10.315 28.1767 9.6791 28.6455 9.21026C29.1143 8.74142 29.7502 8.47803 30.4133 8.47803Z" fill="black"/>
</g>
</svg>
