<svg width="61" height="61" viewBox="0 0 61 61" fill="none" xmlns="http://www.w3.org/2000/svg">
<g id="Group">
<path id="Vector" fill-rule="evenodd" clip-rule="evenodd" d="M45.9133 23.478C47.8263 23.4779 49.6671 24.2088 51.0589 25.5212C52.4508 26.8336 53.2885 28.6283 53.4008 30.538L53.4133 30.978V38.478C53.4133 40.078 52.4658 41.3255 51.2083 41.8955L50.9133 42.013V50.978C50.9137 52.2395 50.4373 53.4544 49.5795 54.3794C48.7218 55.3044 47.5462 55.8709 46.2883 55.9655L45.9133 55.978H15.9133C14.6518 55.9784 13.4369 55.502 12.5119 54.6443C11.5869 53.7866 11.0204 52.6109 10.9258 51.353L10.9133 50.978V42.0155C10.2384 41.7805 9.64538 41.3561 9.20517 40.7931C8.76495 40.23 8.49612 39.5522 8.43077 38.8405L8.41327 38.478V30.978C8.41316 29.065 9.14408 27.2242 10.4565 25.8324C11.7689 24.4405 13.5635 23.6028 15.4733 23.4905L15.9133 23.478H45.9133ZM45.7458 40.228C45.3579 39.937 44.8938 39.765 44.41 39.7331C43.9262 39.7011 43.4435 39.8105 43.0208 40.048L42.7458 40.228L42.0808 40.728C40.854 41.6486 39.3745 42.1709 37.8416 42.2245C36.3088 42.2782 34.7964 41.8606 33.5083 41.028L33.0808 40.728L32.4133 40.228C32.0254 39.937 31.5613 39.765 31.0775 39.7331C30.5937 39.7011 30.111 39.8105 29.6883 40.048L29.4133 40.228L28.7458 40.728C27.5192 41.648 26.0402 42.17 24.5079 42.2236C22.9756 42.2773 21.4636 41.86 20.1758 41.028L19.7458 40.728L19.0808 40.228C18.6929 39.937 18.2288 39.765 17.745 39.7331C17.2612 39.7011 16.7785 39.8105 16.3558 40.048L16.0808 40.228L15.9133 40.353V50.978H45.9133V40.353L45.7458 40.228ZM45.9133 28.478H15.9133C15.2502 28.478 14.6143 28.7414 14.1455 29.2103C13.6767 29.6791 13.4133 30.315 13.4133 30.978V35.9905C14.7048 35.1278 16.2322 34.6873 17.7848 34.7298C19.3374 34.7723 20.8385 35.2958 22.0808 36.228L22.7458 36.728C23.1785 37.0526 23.7048 37.228 24.2458 37.228C24.7867 37.228 25.313 37.0526 25.7458 36.728L26.4133 36.228C27.7115 35.2544 29.2905 34.728 30.9133 34.728C32.536 34.728 34.115 35.2544 35.4133 36.228L36.0808 36.728C36.5135 37.0526 37.0398 37.228 37.5808 37.228C38.1217 37.228 38.648 37.0526 39.0808 36.728L39.7458 36.228C40.9881 35.2958 42.4892 34.7723 44.0417 34.7298C45.5943 34.6873 47.1218 35.1278 48.4133 35.9905V30.978C48.4133 30.315 48.1499 29.6791 47.681 29.2103C47.2122 28.7414 46.5763 28.478 45.9133 28.478ZM32.4133 6.47803C33.4468 7.28537 34.4064 8.18308 35.2808 9.16053C36.5908 10.633 38.4133 13.1155 38.4133 15.978C38.4133 17.9672 37.6231 19.8748 36.2166 21.2813C34.81 22.6879 32.9024 23.478 30.9133 23.478C28.9241 23.478 27.0165 22.6879 25.61 21.2813C24.2034 19.8748 23.4133 17.9672 23.4133 15.978C23.4133 13.1155 25.2383 10.633 26.5458 9.16053C27.4201 8.18308 28.3798 7.28537 29.4133 6.47803C29.846 6.15347 30.3723 5.97803 30.9133 5.97803C31.4542 5.97803 31.9805 6.15347 32.4133 6.47803ZM30.9133 11.813C30.696 12.0302 30.4851 12.2537 30.2808 12.483C29.0908 13.823 28.4133 15.0905 28.4133 15.978C28.4133 16.6411 28.6767 17.277 29.1455 17.7458C29.6143 18.2146 30.2502 18.478 30.9133 18.478C31.5763 18.478 32.2122 18.2146 32.681 17.7458C33.1499 17.277 33.4133 16.6411 33.4133 15.978C33.4133 15.0905 32.7383 13.823 31.5458 12.483C31.3414 12.2537 31.1305 12.0302 30.9133 11.813Z" fill="black" fill-opacity="0.89"/>
</g>
</svg>
