<svg width="61" height="61" viewBox="0 0 61 61" fill="none" xmlns="http://www.w3.org/2000/svg">
<g id="ic:round-delivery-dining">
<path id="Vector" d="M47.9133 18.478C47.9133 15.728 45.6633 13.478 42.9133 13.478H37.9133C36.5383 13.478 35.4133 14.603 35.4133 15.978C35.4133 17.353 36.5383 18.478 37.9133 18.478H42.9133V25.103L34.2133 35.978H25.4133V25.978C25.4133 24.603 24.2883 23.478 22.9133 23.478H15.4133C9.88827 23.478 5.41327 27.953 5.41327 33.478V38.478C5.41327 39.853 6.53827 40.978 7.91327 40.978H10.4133C10.4133 45.128 13.7633 48.478 17.9133 48.478C22.0633 48.478 25.4133 45.128 25.4133 40.978H34.2133C35.7383 40.978 37.1633 40.278 38.1133 39.103L46.8133 28.228C47.5383 27.328 47.9133 26.228 47.9133 25.103V18.478ZM17.9133 43.478C16.5383 43.478 15.4133 42.353 15.4133 40.978H20.4133C20.4133 42.353 19.2883 43.478 17.9133 43.478Z" fill="black"/>
<path id="Vector_2" d="M15.4133 15.978H22.9133C24.2883 15.978 25.4133 17.103 25.4133 18.478C25.4133 19.853 24.2883 20.978 22.9133 20.978H15.4133C14.0383 20.978 12.9133 19.853 12.9133 18.478C12.9133 17.103 14.0383 15.978 15.4133 15.978ZM47.9133 33.478C43.7633 33.478 40.4133 36.828 40.4133 40.978C40.4133 45.128 43.7633 48.478 47.9133 48.478C52.0633 48.478 55.4133 45.128 55.4133 40.978C55.4133 36.828 52.0633 33.478 47.9133 33.478ZM47.9133 43.478C46.5383 43.478 45.4133 42.353 45.4133 40.978C45.4133 39.603 46.5383 38.478 47.9133 38.478C49.2883 38.478 50.4133 39.603 50.4133 40.978C50.4133 42.353 49.2883 43.478 47.9133 43.478Z" fill="black"/>
</g>
</svg>
